{"glyphs":{"0":{"ha":684,"x_min":38,"x_max":651,"o":"m 342 939 q 168 488 168 944 q 342 33 163 16 q 515 488 521 22 q 342 939 515 944 m 342 982 q 651 488 613 949 q 342 -5 624 22 q 38 488 54 11 q 342 982 71 955 z "},"1":{"ha":684,"x_min":152,"x_max":532,"o":"m 163 16 l 163 54 l 250 54 q 293 109 293 54 l 293 836 q 255 863 293 884 l 168 819 l 152 863 l 363 982 l 401 960 l 401 109 q 445 54 401 54 l 532 54 l 532 16 l 163 16 z "},"2":{"ha":684,"x_min":43,"x_max":608,"o":"m 608 304 l 608 16 l 43 16 l 43 54 l 298 353 q 434 700 434 515 q 298 868 434 868 q 81 678 179 873 l 43 689 q 331 982 119 982 q 570 722 559 966 q 385 374 575 575 l 174 136 l 456 136 q 575 304 548 125 l 608 304 z "},"3":{"ha":684,"x_min":60,"x_max":613,"o":"m 212 456 l 201 499 q 423 738 429 581 q 315 868 423 868 q 92 711 195 873 l 60 727 q 336 982 152 977 q 553 781 548 977 q 412 564 553 662 q 613 326 613 537 q 217 -5 597 11 q 65 76 71 0 q 119 136 71 130 q 206 92 146 136 q 217 87 201 98 q 315 49 271 49 q 483 271 467 71 q 212 456 510 521 z "},"4":{"ha":684,"x_min":22,"x_max":646,"o":"m 646 326 l 646 217 l 510 217 l 510 -5 l 401 -5 l 401 217 l 22 217 l 22 320 l 445 982 l 510 982 l 510 326 l 646 326 m 401 326 l 401 825 l 81 326 l 401 326 z "},"5":{"ha":684,"x_min":49,"x_max":581,"o":"m 212 846 l 168 651 q 581 315 575 656 q 217 -5 559 16 q 49 71 54 -5 q 103 136 49 136 q 206 87 141 141 q 298 43 271 43 q 445 266 439 54 q 119 515 461 526 q 98 543 98 515 l 179 960 l 581 960 l 559 873 q 532 846 559 846 l 212 846 z "},"6":{"ha":684,"x_min":49,"x_max":635,"o":"m 602 982 l 602 939 q 201 526 255 841 q 380 602 282 602 q 635 309 618 586 q 347 -5 613 22 q 49 374 60 5 q 602 982 87 884 m 331 521 q 190 472 260 521 q 184 320 179 374 q 347 33 190 27 q 505 282 505 38 q 331 521 510 526 z "},"7":{"ha":684,"x_min":60,"x_max":608,"o":"m 608 960 l 608 928 l 320 -5 l 206 -5 l 488 846 l 184 846 q 130 803 136 852 l 92 684 l 60 684 l 60 960 l 608 960 z "},"8":{"ha":684,"x_min":60,"x_max":624,"o":"m 293 450 q 168 233 163 358 q 353 33 179 43 q 515 206 505 49 q 293 450 515 331 m 336 -5 q 65 217 87 11 q 250 488 60 363 q 87 749 81 602 q 336 982 103 966 q 575 770 559 966 q 407 537 581 640 q 618 239 624 418 q 336 -5 608 5 m 190 798 q 358 570 184 684 q 483 781 483 667 q 320 939 472 928 q 190 798 201 928 z "},"9":{"ha":684,"x_min":43,"x_max":618,"o":"m 81 -5 l 71 33 q 483 434 423 152 q 282 342 391 342 q 43 635 60 363 q 326 982 54 971 q 618 575 608 971 q 81 -5 618 92 m 488 510 q 326 939 505 944 q 174 678 174 939 q 336 418 168 412 q 488 510 423 423 z "},"A":{"ha":917,"x_min":43,"x_max":879,"o":"m 233 54 l 309 54 l 309 16 l 43 16 l 43 54 l 92 54 q 163 119 141 54 l 439 982 l 499 982 l 760 125 q 836 54 781 60 l 879 54 l 879 16 l 532 16 l 532 54 l 608 54 q 635 98 651 54 l 559 347 l 288 347 l 206 98 q 233 54 195 54 m 429 792 l 304 401 l 543 401 l 429 792 z "},"B":{"ha":841,"x_min":54,"x_max":770,"o":"m 282 488 l 282 109 q 326 54 282 60 l 401 54 q 629 282 629 54 q 401 488 629 494 l 282 488 m 282 863 l 282 532 l 401 532 q 597 727 597 532 q 401 917 602 922 l 326 917 q 282 863 282 917 m 418 16 l 54 16 l 54 54 l 119 54 q 157 109 157 54 l 157 863 q 119 917 157 922 l 54 917 l 54 960 l 418 960 q 732 727 727 955 q 532 510 732 570 q 765 282 765 456 q 418 16 770 11 z "},"C":{"ha":841,"x_min":71,"x_max":749,"o":"m 727 960 l 727 684 l 694 684 q 456 939 651 949 q 212 488 206 944 q 456 33 206 27 q 716 293 684 27 l 749 293 l 749 16 l 722 16 l 684 71 q 461 -5 591 -5 q 71 488 98 22 q 467 982 109 944 q 662 901 575 982 l 700 960 l 727 960 z "},"D":{"ha":917,"x_min":54,"x_max":852,"o":"m 293 863 l 293 109 q 336 54 293 54 l 412 54 q 711 488 722 43 q 412 917 716 922 l 336 917 q 293 863 293 917 m 168 109 l 168 857 q 125 917 168 922 l 54 917 l 54 960 l 423 960 q 852 488 819 928 q 423 16 825 43 l 54 16 l 54 54 l 125 54 q 168 109 168 54 z "},"E":{"ha":841,"x_min":38,"x_max":765,"o":"m 765 16 l 38 16 l 38 54 l 125 54 q 168 109 168 54 l 168 863 q 125 917 168 917 l 38 917 l 38 960 l 732 960 l 732 694 l 700 694 q 483 917 684 933 l 293 917 l 293 521 l 396 521 q 543 673 543 510 l 575 673 l 575 326 l 543 326 q 396 477 543 488 l 293 477 l 293 54 l 515 54 q 732 293 711 33 l 765 293 l 765 16 z "},"F":{"ha":770,"x_min":49,"x_max":722,"o":"m 412 16 l 49 16 l 49 54 l 125 54 q 163 109 163 54 l 163 863 q 125 917 163 917 l 49 917 l 49 960 l 722 960 l 722 694 l 689 694 q 472 917 667 939 l 293 917 l 293 515 l 396 515 q 543 667 537 505 l 575 667 l 575 309 l 543 309 q 396 472 532 483 l 293 472 l 293 109 q 331 54 293 54 l 412 54 l 412 16 z "},"G":{"ha":917,"x_min":71,"x_max":895,"o":"m 700 890 l 738 949 l 765 949 l 765 667 l 732 667 q 467 939 684 939 q 212 488 217 928 q 467 33 212 38 q 673 228 662 43 l 673 326 q 629 380 673 380 l 494 380 l 494 423 l 895 423 l 895 380 l 841 380 q 798 326 798 380 l 798 228 q 461 -5 754 22 q 71 488 98 33 q 467 982 114 922 q 700 890 608 982 z "},"H":{"ha":998,"x_min":65,"x_max":933,"o":"m 293 515 l 705 515 l 705 863 q 662 917 700 911 l 586 917 l 586 960 l 933 960 l 933 917 l 868 917 q 830 863 836 917 l 830 109 q 868 54 830 54 l 933 54 l 933 16 l 586 16 l 586 54 l 662 54 q 705 109 705 54 l 705 477 l 293 477 l 293 109 q 331 54 298 60 l 401 54 l 401 16 l 65 16 l 65 54 l 125 54 q 168 109 168 60 l 168 863 q 125 917 168 917 l 65 917 l 65 960 l 401 960 l 401 917 l 331 917 q 293 863 298 917 l 293 515 z "},"I":{"ha":456,"x_min":43,"x_max":412,"o":"m 412 54 l 412 16 l 43 16 l 43 54 l 125 54 q 168 109 168 54 l 168 863 q 125 917 168 917 l 43 917 l 43 960 l 412 960 l 412 917 l 331 917 q 293 863 298 917 l 293 109 q 331 54 293 54 l 412 54 z "},"J":{"ha":537,"x_min":16,"x_max":499,"o":"m 136 960 l 499 960 l 499 917 l 434 917 q 391 863 391 917 l 391 233 q 179 -5 385 5 q 16 136 27 5 q 92 217 22 212 q 168 136 168 212 q 141 76 168 109 q 184 43 152 43 q 266 174 260 54 l 266 863 q 222 917 266 917 l 136 917 l 136 960 z "},"K":{"ha":917,"x_min":43,"x_max":884,"o":"m 391 54 l 391 16 l 43 16 l 43 54 l 114 54 q 157 109 157 54 l 157 863 q 114 917 157 911 l 43 917 l 43 960 l 391 960 l 391 917 l 320 917 q 282 863 288 917 l 282 521 l 656 890 q 667 911 667 901 q 646 917 662 917 l 575 917 l 575 960 l 846 960 l 846 917 l 808 917 q 716 879 754 917 l 391 564 l 760 109 q 846 54 798 60 l 884 54 l 884 16 l 537 16 l 537 54 l 597 54 q 618 65 618 54 q 613 87 624 76 l 282 505 l 282 109 q 320 54 288 54 l 391 54 z "},"L":{"ha":770,"x_min":33,"x_max":732,"o":"m 732 16 l 33 16 l 33 54 l 98 54 q 141 109 141 54 l 141 863 q 98 917 141 917 l 33 917 l 33 960 l 401 960 l 401 917 l 304 917 q 266 863 271 917 l 266 109 q 304 54 271 60 l 483 54 q 694 293 667 38 l 732 293 l 732 16 z "},"M":{"ha":1069,"x_min":65,"x_max":1004,"o":"m 119 917 l 65 917 l 65 960 l 309 960 l 526 244 l 760 960 l 1004 960 l 1004 917 l 944 917 q 906 863 911 917 l 906 109 q 949 54 906 54 l 1004 54 l 1004 16 l 662 16 l 662 54 l 738 54 q 781 109 781 54 l 781 863 l 499 16 l 467 16 l 212 863 l 212 109 q 250 54 212 54 l 309 54 l 309 16 l 65 16 l 65 54 l 119 54 q 157 109 157 54 l 157 863 q 119 917 157 917 z "},"N":{"ha":917,"x_min":60,"x_max":863,"o":"m 157 109 l 157 863 q 114 917 157 917 l 60 917 l 60 960 l 304 960 l 716 277 l 716 863 q 673 917 716 917 l 608 917 l 608 960 l 863 960 l 863 917 l 808 917 q 765 863 765 917 l 765 16 l 732 16 l 206 884 l 206 109 q 250 54 206 54 l 315 54 l 315 16 l 60 16 l 60 54 l 114 54 q 157 109 157 54 z "},"O":{"ha":917,"x_min":71,"x_max":852,"o":"m 456 33 q 711 483 711 38 q 456 939 711 939 q 206 483 206 939 q 456 33 212 33 m 456 -5 q 71 488 103 27 q 456 982 109 939 q 852 488 814 939 q 456 -5 819 27 z "},"P":{"ha":770,"x_min":33,"x_max":738,"o":"m 260 917 l 260 477 l 396 477 q 597 700 608 467 q 396 917 608 928 l 260 917 m 43 917 l 43 960 l 412 960 q 738 700 722 939 q 412 434 722 456 l 260 434 l 260 109 q 304 54 260 54 l 407 54 l 407 16 l 33 16 l 33 54 l 92 54 q 136 109 136 54 l 136 863 q 92 917 136 917 l 43 917 z "},"Q":{"ha":917,"x_min":71,"x_max":852,"o":"m 456 33 q 711 483 711 38 q 456 939 711 944 q 206 483 206 939 q 456 33 201 22 m 770 -239 l 770 -277 l 727 -277 q 385 -49 369 -288 l 385 -5 q 71 488 87 76 q 456 982 109 949 q 852 488 808 939 q 526 -5 841 87 l 526 -49 q 727 -239 532 -233 l 770 -239 z "},"R":{"ha":917,"x_min":54,"x_max":879,"o":"m 282 917 l 282 543 l 401 543 q 618 727 624 537 q 401 917 629 928 l 282 917 m 401 16 l 54 16 l 54 54 l 114 54 q 157 109 157 54 l 157 863 q 114 917 157 917 l 54 917 l 54 960 l 412 960 q 760 727 749 949 q 521 521 754 570 q 727 250 732 472 q 798 65 727 60 q 879 81 830 65 l 879 33 q 781 16 836 16 q 586 244 581 5 q 401 499 586 505 l 282 499 l 282 109 q 326 54 282 54 l 401 54 l 401 16 z "},"S":{"ha":684,"x_min":49,"x_max":640,"o":"m 130 60 l 87 5 l 54 5 l 54 266 l 92 266 q 353 33 168 33 q 570 206 559 43 q 363 418 564 353 q 54 711 49 499 q 326 982 71 966 q 515 917 434 982 l 559 960 l 586 960 l 586 694 l 548 694 q 315 939 494 933 q 125 770 141 922 q 418 553 119 635 q 640 277 640 483 q 336 -5 635 0 q 130 60 222 -5 z "},"T":{"ha":770,"x_min":22,"x_max":743,"o":"m 564 16 l 206 16 l 206 54 l 277 54 q 320 109 320 54 l 320 917 l 217 917 q 60 667 87 939 l 22 667 l 22 960 l 743 960 l 743 667 l 711 667 q 548 917 684 933 l 445 917 l 445 109 q 488 54 445 54 l 564 54 l 564 16 z "},"U":{"ha":917,"x_min":60,"x_max":857,"o":"m 60 960 l 407 960 l 407 917 l 331 917 q 288 863 288 917 l 288 320 q 477 87 288 87 q 716 342 716 87 l 716 863 q 678 917 716 922 l 613 917 l 613 960 l 857 960 l 857 917 l 808 917 q 765 863 765 917 l 765 342 q 456 -5 754 11 q 163 320 168 0 l 163 863 q 125 917 163 922 l 60 917 l 60 960 z "},"V":{"ha":917,"x_min":43,"x_max":873,"o":"m 43 917 l 43 960 l 391 960 l 391 917 l 315 917 q 288 868 271 917 l 494 212 l 705 868 q 678 917 727 917 l 608 917 l 608 960 l 873 960 l 873 917 l 825 917 q 749 836 776 917 l 477 -5 l 439 -5 l 168 830 q 81 917 136 917 l 43 917 z "},"W":{"ha":1232,"x_min":38,"x_max":1194,"o":"m 591 879 l 662 678 l 738 884 q 722 917 749 917 l 613 917 q 591 879 581 917 m 71 917 l 38 917 l 38 960 l 863 960 l 863 917 l 836 917 q 787 879 803 917 l 684 608 l 825 201 l 1047 884 q 1025 917 1058 917 l 949 917 l 949 960 l 1194 960 l 1194 917 l 1156 917 q 1085 852 1107 911 l 808 -5 l 776 -5 l 618 434 l 456 -5 l 418 -5 l 136 852 q 71 917 114 911 m 412 917 l 282 917 q 260 879 244 917 l 477 195 l 597 505 l 467 868 q 412 917 450 917 z "},"X":{"ha":917,"x_min":38,"x_max":884,"o":"m 846 54 l 884 54 l 884 16 l 526 16 l 526 54 l 602 54 q 618 98 640 60 l 434 418 l 222 98 q 244 54 206 60 l 320 54 l 320 16 l 38 16 l 38 54 l 81 54 q 174 109 141 54 l 412 467 l 179 868 q 98 917 146 917 l 65 917 l 65 960 l 418 960 l 418 917 l 336 917 q 315 906 320 917 q 320 879 309 895 l 488 586 l 684 879 q 689 906 694 895 q 667 917 684 917 l 591 917 l 591 960 l 857 960 l 857 917 l 814 917 q 732 873 765 917 l 515 537 l 754 114 q 846 54 798 54 z "},"Y":{"ha":917,"x_min":38,"x_max":879,"o":"m 505 499 l 716 884 q 700 917 732 917 l 602 917 l 602 960 l 879 960 l 879 917 l 841 917 q 765 868 792 917 l 521 434 l 521 109 q 564 54 521 54 l 646 54 l 646 16 l 271 16 l 271 54 l 358 54 q 396 109 396 54 l 396 434 l 157 868 q 87 917 130 911 l 38 917 l 38 960 l 407 960 l 407 917 l 315 917 q 298 879 277 911 l 505 499 z "},"Z":{"ha":770,"x_min":49,"x_max":722,"o":"m 722 922 l 217 92 q 239 54 201 60 l 472 54 q 689 293 656 33 l 722 293 l 722 16 l 49 16 l 49 49 l 548 879 q 532 917 570 911 l 342 917 q 125 684 163 939 l 92 684 l 92 960 l 722 960 l 722 922 z "},"_":{"ha":684,"x_min":11,"x_max":678,"o":"m 678 16 l 11 16 l 11 98 l 678 98 l 678 16 z "},"a":{"ha":608,"x_min":27,"x_max":581,"o":"m 369 168 l 369 320 q 168 141 163 260 q 250 49 168 49 q 369 168 358 60 m 548 130 l 581 130 q 467 -5 581 -5 q 374 71 401 -11 q 195 -5 320 -11 q 33 136 38 0 q 369 363 27 293 l 369 461 q 260 575 374 581 q 152 515 157 575 q 163 499 152 505 q 168 499 163 505 q 195 450 195 483 q 125 385 195 385 q 54 456 60 391 q 277 618 71 608 q 483 439 472 608 l 483 114 q 510 65 483 65 q 548 130 532 60 z "},"b":{"ha":684,"x_min":38,"x_max":640,"o":"m 228 982 l 228 537 q 374 618 293 618 q 640 304 613 591 q 374 -5 618 16 q 228 76 277 -5 l 228 0 l 38 0 l 38 43 l 114 43 l 114 928 l 38 928 l 38 971 l 71 971 q 228 982 130 971 m 222 304 q 363 33 222 33 q 505 304 505 33 q 363 575 505 570 q 222 304 222 575 z "},"c":{"ha":608,"x_min":54,"x_max":559,"o":"m 526 195 l 559 195 q 331 -5 515 -5 q 54 304 76 16 q 331 618 92 586 q 543 445 521 602 q 472 369 537 374 q 401 434 407 374 q 439 494 407 477 q 445 515 450 505 q 342 575 418 575 q 190 304 190 575 q 342 33 190 33 q 526 195 472 33 z "},"d":{"ha":684,"x_min":49,"x_max":646,"o":"m 456 304 q 320 575 456 575 q 179 304 179 581 q 320 33 179 33 q 456 304 456 33 m 570 38 l 646 38 l 646 0 l 456 0 l 456 81 q 282 -5 401 -5 q 49 304 60 5 q 298 618 71 602 q 456 521 412 618 l 456 928 l 374 928 l 374 971 l 418 971 q 570 982 499 971 l 570 38 z "},"e":{"ha":608,"x_min":49,"x_max":564,"o":"m 184 380 l 434 380 q 309 575 434 581 q 184 380 184 581 m 526 195 l 559 195 q 320 -5 515 -5 q 49 304 65 11 q 309 618 65 597 q 564 315 553 602 l 184 315 l 184 293 q 342 33 184 38 q 526 195 483 33 z "},"f":{"ha":374,"x_min":11,"x_max":450,"o":"m 222 591 l 331 591 l 331 532 l 222 532 l 222 109 q 266 54 222 54 l 331 54 l 331 16 l 11 16 l 11 54 l 71 54 q 109 109 109 54 l 109 532 l 11 532 l 11 591 l 109 591 l 109 694 q 331 982 125 960 q 450 879 445 977 q 380 808 450 814 q 315 868 320 814 q 331 911 315 895 q 336 928 342 917 q 315 939 331 939 q 222 711 222 944 l 222 591 z "},"g":{"ha":608,"x_min":27,"x_max":597,"o":"m 266 575 q 179 418 179 581 q 266 260 179 260 q 353 418 353 260 q 266 575 353 575 m 119 125 q 233 125 157 119 q 304 125 277 125 q 559 -49 548 125 q 277 -277 548 -266 q 27 -119 33 -271 q 146 16 27 -22 q 38 130 43 43 q 157 250 38 217 q 71 418 71 304 q 255 618 87 597 q 418 543 358 618 q 537 613 483 613 q 597 548 591 608 q 543 488 591 494 q 494 526 499 494 q 483 537 494 537 q 439 505 456 532 q 461 418 461 467 q 315 233 456 271 q 239 222 288 222 q 87 146 92 212 q 119 125 87 130 m 217 16 q 136 -98 141 -22 q 271 -201 141 -195 q 510 -71 499 -195 q 347 16 510 5 q 217 16 293 16 z "},"h":{"ha":684,"x_min":38,"x_max":646,"o":"m 109 109 l 109 928 l 38 928 l 38 971 l 65 971 q 222 982 146 971 l 222 461 q 412 618 298 618 q 575 429 570 613 l 575 109 q 618 54 575 54 l 646 54 l 646 16 l 396 16 l 396 54 l 423 54 q 467 109 467 54 l 467 423 q 380 537 467 537 q 222 320 255 505 l 222 109 q 266 54 222 54 l 293 54 l 293 16 l 38 16 l 38 54 l 71 54 q 109 109 109 54 z "},"i":{"ha":374,"x_min":54,"x_max":326,"o":"m 326 16 l 54 16 l 54 54 l 98 54 q 141 109 146 54 l 141 559 l 54 559 l 54 602 l 98 602 q 255 618 179 602 l 255 109 q 293 54 255 54 l 326 54 l 326 16 m 125 906 q 195 982 130 977 q 266 906 260 977 q 195 836 266 841 q 125 906 130 841 z "},"j":{"ha":374,"x_min":-33,"x_max":277,"o":"m 260 618 l 260 43 q 71 -277 250 -250 q -33 -190 -27 -271 q 22 -130 -27 -136 q 81 -184 81 -136 q 71 -217 81 -206 q 81 -239 65 -239 q 146 -54 146 -228 l 146 559 l 60 559 l 60 602 l 109 602 q 260 618 190 602 m 130 906 q 206 982 136 977 q 277 906 271 977 q 206 836 271 841 q 130 906 136 841 z "},"k":{"ha":684,"x_min":49,"x_max":640,"o":"m 298 16 l 49 16 l 49 54 l 71 54 q 114 109 114 54 l 114 928 l 49 928 l 49 971 l 71 971 q 222 982 174 971 l 222 358 l 467 559 l 380 559 l 380 602 l 613 602 l 613 559 l 537 559 l 326 385 l 543 103 q 618 54 575 60 l 640 54 l 640 16 l 380 16 l 380 54 l 401 54 q 418 87 434 60 l 222 342 l 222 109 q 266 54 222 54 l 298 54 l 298 16 z "},"l":{"ha":374,"x_min":33,"x_max":342,"o":"m 342 16 l 33 16 l 33 54 l 87 54 q 130 109 130 54 l 130 928 l 33 928 l 33 971 l 92 971 q 244 982 168 971 l 244 109 q 282 54 244 54 l 342 54 l 342 16 z "},"m":{"ha":998,"x_min":43,"x_max":949,"o":"m 928 54 l 949 54 l 949 16 l 705 16 l 705 54 l 732 54 q 776 109 776 54 l 776 439 q 705 537 776 537 q 553 315 575 521 l 553 109 q 597 54 553 54 l 618 54 l 618 16 l 374 16 l 374 54 l 401 54 q 445 109 445 54 l 445 439 q 374 537 445 537 q 222 315 244 521 l 222 109 q 266 54 222 54 l 293 54 l 293 16 l 43 16 l 43 54 l 71 54 q 109 109 109 54 l 109 559 l 43 559 l 43 602 l 65 602 q 222 618 146 602 l 222 472 q 401 618 298 618 q 548 472 532 618 q 732 618 629 618 q 884 439 884 618 l 884 109 q 928 54 884 54 z "},"n":{"ha":684,"x_min":43,"x_max":651,"o":"m 114 109 l 114 559 l 43 559 l 43 602 l 65 602 q 222 618 146 602 l 222 467 q 418 618 309 618 q 575 434 570 613 l 575 109 q 618 54 575 54 l 651 54 l 651 16 l 401 16 l 401 54 l 423 54 q 467 109 467 54 l 467 429 q 385 537 467 543 q 222 304 250 515 l 222 109 q 266 54 222 54 l 293 54 l 293 16 l 43 16 l 43 54 l 71 54 q 114 109 114 54 z "},"o":{"ha":608,"x_min":43,"x_max":564,"o":"m 304 575 q 179 304 168 586 q 304 33 174 22 q 434 304 445 16 q 304 575 439 586 m 304 618 q 564 304 532 591 q 304 -5 543 11 q 43 304 65 11 q 304 618 71 597 z "},"p":{"ha":684,"x_min":33,"x_max":640,"o":"m 217 304 q 363 33 217 33 q 505 304 510 27 q 363 575 505 575 q 217 304 217 575 m 109 -179 l 109 559 l 33 559 l 33 602 l 65 602 q 222 618 146 602 l 222 532 q 385 618 293 618 q 640 304 608 581 q 380 -5 618 16 q 222 71 277 -5 l 222 -179 q 260 -239 228 -239 l 309 -239 l 309 -277 l 33 -277 l 33 -239 l 71 -239 q 109 -179 109 -239 z "},"q":{"ha":684,"x_min":49,"x_max":646,"o":"m 461 304 q 320 575 467 575 q 179 304 179 581 q 320 33 179 27 q 461 304 467 27 m 613 -239 l 646 -239 l 646 -277 l 374 -277 l 374 -239 l 418 -239 q 456 -179 456 -239 l 456 65 q 288 -5 401 -5 q 49 304 71 11 q 288 618 76 597 q 456 537 401 618 l 456 618 q 608 602 505 602 l 646 602 l 646 559 l 570 559 l 570 -179 q 613 -239 570 -239 z "},"r":{"ha":456,"x_min":27,"x_max":461,"o":"m 228 618 l 228 477 q 385 618 298 613 q 461 543 456 613 q 391 467 456 472 q 331 515 342 467 q 326 526 331 521 q 315 515 320 521 q 228 315 239 434 l 228 109 q 271 54 228 54 l 326 54 l 326 16 l 27 16 l 27 54 l 76 54 q 119 109 119 54 l 119 559 l 27 559 l 27 602 l 71 602 q 228 618 152 602 z "},"s":{"ha":537,"x_min":65,"x_max":472,"o":"m 407 608 l 434 608 l 434 429 l 401 429 q 233 575 358 575 q 119 483 130 570 q 331 363 103 412 q 472 195 472 342 q 277 -5 467 0 q 114 54 190 -11 l 92 0 l 65 0 l 65 179 l 98 179 q 282 33 136 33 q 418 141 412 38 q 228 255 423 206 q 65 429 65 293 q 250 618 76 608 q 385 553 320 618 l 407 608 z "},"t":{"ha":374,"x_min":22,"x_max":363,"o":"m 22 532 l 22 591 l 98 591 l 98 781 l 206 781 l 206 591 l 326 591 l 326 532 l 206 532 l 206 125 q 255 65 206 65 q 326 141 293 65 l 363 125 q 217 -5 320 -5 q 98 119 103 -5 l 98 532 l 22 532 z "},"u":{"ha":684,"x_min":38,"x_max":646,"o":"m 646 38 l 646 0 l 461 0 l 461 103 q 271 -5 385 0 q 109 152 109 -5 l 109 559 l 38 559 l 38 602 l 65 602 q 222 618 146 602 l 222 157 q 298 65 222 65 q 461 228 445 81 l 461 559 l 385 559 l 385 602 l 418 602 q 570 618 505 602 l 570 38 l 646 38 z "},"v":{"ha":608,"x_min":38,"x_max":575,"o":"m 65 575 l 38 575 l 38 618 l 277 618 l 277 575 l 244 575 q 222 543 212 575 l 336 179 l 456 532 q 434 575 472 581 l 391 575 l 391 618 l 575 618 l 575 575 l 548 575 q 499 526 521 570 l 320 -5 l 282 -5 l 109 521 q 65 575 92 575 z "},"w":{"ha":841,"x_min":27,"x_max":819,"o":"m 54 575 l 27 575 l 27 618 l 282 618 l 282 575 l 250 575 q 222 537 212 575 l 315 206 l 439 618 l 472 618 l 608 201 l 700 537 q 673 575 705 575 l 618 575 l 618 618 l 819 618 l 819 575 l 792 575 q 738 526 754 575 l 591 -5 l 559 -5 l 423 423 l 293 -5 l 260 -5 l 109 521 q 54 575 92 575 z "},"x":{"ha":608,"x_min":27,"x_max":586,"o":"m 65 575 l 33 575 l 33 618 l 288 618 l 288 575 l 260 575 q 250 543 233 575 l 331 391 l 434 537 q 445 564 445 553 q 423 575 439 575 l 391 575 l 391 618 l 581 618 l 581 575 l 553 575 q 488 537 515 575 l 353 347 l 494 103 q 564 54 526 54 l 586 54 l 586 16 l 331 16 l 331 54 l 353 54 q 374 92 391 60 l 282 250 l 168 87 q 184 54 152 60 l 222 54 l 222 16 l 27 16 l 27 54 l 49 54 q 125 92 98 54 l 260 288 l 130 532 q 65 575 98 575 z "},"y":{"ha":608,"x_min":27,"x_max":581,"o":"m 581 575 l 559 575 q 494 510 521 570 l 315 -65 q 136 -277 244 -277 q 60 -201 65 -271 q 130 -125 60 -125 q 190 -168 179 -125 q 195 -174 190 -168 q 201 -179 195 -179 q 271 -54 233 -168 l 298 22 l 119 510 q 60 575 92 575 l 27 575 l 27 618 l 288 618 l 288 575 l 250 575 q 228 532 217 581 l 353 195 l 456 532 q 429 575 472 581 l 391 575 l 391 618 l 581 618 l 581 575 z "},"z":{"ha":537,"x_min":33,"x_max":472,"o":"m 109 396 l 71 396 l 71 618 l 472 618 l 472 581 l 190 92 q 206 54 174 60 l 320 54 q 439 239 412 43 l 472 239 l 472 16 l 33 16 l 33 49 l 320 537 q 304 575 336 575 l 228 575 q 109 396 136 591 z "},"上":{"ha":1389,"x_min":54,"x_max":1335,"o":"m 1080 743 l 1204 635 l 1199 618 l 694 618 l 694 -11 l 1128 -11 l 1204 92 l 1335 -27 l 1324 -43 l 152 -43 l 76 -49 l 54 -11 l 581 -11 l 581 1128 l 749 1053 q 749 1036 760 1053 l 694 998 l 694 656 l 1009 656 l 1080 743 z "},"东":{"ha":1389,"x_min":49,"x_max":1324,"o":"m 1194 977 l 1324 863 l 1318 852 l 608 852 q 418 537 543 732 q 380 477 391 494 l 689 477 l 689 754 l 836 689 q 846 684 841 689 q 836 673 841 678 l 792 640 l 792 477 l 1009 477 l 1085 570 l 1204 456 l 1199 445 l 792 445 l 792 -38 q 646 -157 792 -119 q 624 -152 624 -168 q 461 -27 624 -71 l 467 -5 l 618 -22 q 689 38 689 -33 l 689 445 l 380 445 l 326 396 l 233 472 q 233 488 228 483 l 282 515 q 488 852 374 635 l 179 852 l 103 841 l 87 884 l 510 884 q 570 998 537 944 q 624 1134 608 1074 l 760 1047 q 754 1036 770 1036 l 700 1009 q 651 933 684 987 q 624 884 635 901 l 1118 884 l 1194 977 m 456 369 l 575 271 q 575 260 586 266 q 488 217 521 250 q 60 -103 293 22 l 49 -81 q 369 239 244 81 q 456 369 423 304 m 901 336 q 1253 103 1112 233 q 1291 27 1291 71 q 1232 -76 1286 -60 q 1188 -43 1210 -76 q 890 320 1085 146 l 901 336 z "},"云":{"ha":1389,"x_min":81,"x_max":1313,"o":"m 836 391 q 1166 87 1063 228 q 1194 5 1199 49 q 1112 -103 1183 -81 q 1074 -65 1085 -103 q 1031 49 1058 -11 q 358 -43 651 5 q 255 -76 315 -54 q 244 -81 244 -81 q 228 -76 239 -92 l 184 49 q 309 119 244 49 q 526 429 391 206 q 602 570 570 505 l 174 570 l 98 559 l 81 602 l 1101 602 l 1177 700 l 1313 581 l 1308 570 l 646 570 l 749 494 q 743 483 760 488 q 667 429 694 472 q 326 43 494 195 q 1015 92 488 49 q 819 380 949 228 l 836 391 m 1031 1069 l 1161 966 l 1150 949 l 320 949 l 244 944 l 228 987 l 960 987 l 1031 1069 z "},"京":{"ha":1389,"x_min":49,"x_max":1324,"o":"m 591 -11 q 651 49 656 -27 l 651 391 l 423 391 l 423 358 q 320 326 380 326 q 320 450 320 353 q 326 581 326 548 l 326 787 l 445 722 l 949 722 l 993 792 l 1107 716 q 1107 705 1118 711 l 1069 667 l 1069 602 q 1069 363 1069 488 q 966 331 1047 342 l 966 391 l 754 391 l 754 -33 q 618 -152 754 -114 q 597 -146 597 -163 q 418 -16 591 -54 l 423 5 l 591 -11 m 966 689 l 423 689 l 423 429 l 966 429 l 966 689 m 597 1134 q 743 1063 689 1101 q 781 1004 781 1036 q 716 922 776 944 l 1128 922 l 1194 1009 l 1324 901 l 1318 890 l 168 890 l 98 879 l 81 922 l 694 922 q 673 955 684 922 q 586 1123 651 1047 l 597 1134 m 412 298 l 532 195 q 526 184 537 190 q 434 141 477 179 q 65 -109 271 -5 l 49 -87 q 342 190 206 33 q 363 217 347 201 q 412 298 401 277 m 884 266 q 1199 109 1101 184 q 1248 33 1242 81 q 1188 -71 1242 -49 q 1150 -43 1172 -76 q 873 250 1058 119 l 884 266 z "},"内":{"ha":1389,"x_min":184,"x_max":1253,"o":"m 1085 54 l 1085 787 l 738 787 q 705 581 732 673 q 993 396 857 510 q 1031 320 1031 363 q 966 217 1020 233 q 928 255 944 217 q 700 553 857 401 q 315 146 635 309 l 304 168 q 635 787 618 385 l 298 787 l 298 -114 q 184 -157 255 -152 q 195 434 195 98 l 195 884 l 326 819 l 640 819 q 640 890 640 852 q 646 1134 646 922 l 792 1074 q 792 1058 803 1069 l 749 1025 q 743 911 749 987 q 743 819 743 846 l 1063 819 l 1118 901 l 1242 814 q 1242 798 1253 808 l 1188 760 l 1188 -27 q 1047 -152 1194 -103 q 1020 -141 1025 -157 q 841 -11 1025 -49 l 846 11 l 1015 -5 q 1085 54 1090 -22 z "},"北":{"ha":1389,"x_min":43,"x_max":1340,"o":"m 906 98 q 998 5 895 -5 l 1123 5 q 1221 81 1210 0 l 1259 298 l 1286 293 l 1291 87 q 1340 16 1286 33 q 1166 -98 1302 -103 l 944 -98 q 803 49 803 -98 l 803 1112 l 955 1042 q 955 1025 966 1036 l 906 987 l 906 591 q 1177 922 1069 743 l 1302 798 q 1291 787 1308 787 q 1210 760 1242 787 q 906 537 1036 613 l 906 98 m 109 -11 l 43 103 q 445 184 157 119 q 477 190 434 179 q 477 434 477 342 l 477 667 l 168 667 l 92 662 l 76 705 l 477 705 l 477 1112 l 629 1042 q 629 1031 640 1042 l 581 987 l 581 -103 q 472 -152 537 -152 q 477 152 472 43 q 271 71 401 125 q 217 43 233 49 q 125 -16 157 16 q 109 -11 119 -22 z "},"区":{"ha":1389,"x_min":119,"x_max":1308,"o":"m 293 -60 l 233 -125 l 125 -49 q 125 -33 119 -43 l 168 5 l 168 1053 l 298 987 l 1058 987 l 1128 1074 l 1253 966 l 1248 955 l 277 955 l 277 -27 l 1101 -27 l 1177 71 l 1308 -43 l 1297 -60 l 293 -60 m 933 884 l 1063 792 q 1058 781 1074 781 q 993 727 1020 770 q 836 494 917 597 q 1047 293 949 396 q 1096 201 1096 239 q 1036 98 1090 114 q 993 130 1004 98 q 895 277 955 206 q 781 423 846 353 q 336 60 597 212 l 326 81 q 716 488 553 271 q 401 770 586 624 l 418 787 q 760 553 613 673 q 879 749 830 651 q 933 884 922 819 z "},"南":{"ha":1389,"x_min":54,"x_max":1329,"o":"m 1210 -43 q 1063 -163 1215 -119 q 1053 -163 1053 -168 q 1047 -152 1047 -163 q 890 -38 1042 -71 l 895 -16 l 1047 -33 q 1107 27 1112 -43 l 1107 667 l 298 667 l 298 -119 q 190 -157 250 -152 q 195 445 195 -54 l 195 765 l 320 705 l 640 705 l 640 884 l 146 884 l 76 879 l 54 917 l 640 917 l 640 1134 l 787 1069 q 798 1063 798 1063 q 787 1053 798 1058 l 743 1020 l 743 917 l 1145 917 l 1210 998 l 1329 895 l 1324 884 l 743 884 l 743 705 l 1085 705 l 1139 776 l 1253 700 q 1253 684 1264 694 l 1210 640 l 1210 -43 m 955 293 l 1069 190 l 1063 179 l 738 179 q 743 33 738 136 q 743 -76 743 -49 q 640 -109 711 -103 q 646 49 640 -71 q 646 179 646 152 l 423 179 l 358 168 l 342 212 l 646 212 l 646 374 l 439 374 l 374 363 l 358 407 l 711 407 q 738 461 722 423 q 776 548 765 515 q 798 602 787 564 q 819 651 814 635 l 933 575 q 928 559 944 570 q 857 515 901 564 q 760 407 830 477 l 890 407 l 949 483 l 1058 385 l 1053 374 l 738 374 l 738 212 l 890 212 l 955 293 m 461 635 q 613 548 543 602 q 646 488 646 521 q 581 407 635 429 q 548 434 559 401 q 450 624 521 543 l 461 635 z "},"古":{"ha":1389,"x_min":54,"x_max":1345,"o":"m 1210 895 l 1345 781 l 1335 770 l 738 770 l 738 445 l 955 445 l 1015 521 l 1134 434 q 1134 423 1145 423 l 1085 380 l 1085 250 q 1090 60 1085 195 q 1090 -114 1090 -65 q 977 -152 1063 -141 l 977 -11 l 391 -11 l 391 -119 q 277 -152 336 -152 q 282 271 282 -65 l 282 510 l 407 445 l 635 445 l 635 770 l 152 770 l 76 760 l 54 803 l 635 803 l 635 1134 l 787 1069 q 798 1063 798 1063 q 787 1053 798 1058 l 738 1020 l 738 803 l 1134 803 l 1210 895 m 977 412 l 391 412 l 391 22 l 977 22 l 977 412 z "},"台":{"ha":1389,"x_min":152,"x_max":1237,"o":"m 1090 -114 q 982 -152 1063 -141 l 982 -22 l 401 -22 l 401 -119 q 293 -152 347 -152 q 298 271 298 -65 l 298 456 l 423 391 l 966 391 l 1020 472 l 1139 385 q 1139 374 1150 374 l 1090 331 l 1090 250 q 1090 -114 1090 60 m 982 358 l 401 358 l 401 16 l 982 16 l 982 358 m 852 906 q 1188 705 1058 808 q 1237 613 1237 662 q 1177 510 1232 526 q 1139 537 1161 510 q 1080 629 1118 586 q 863 608 1015 624 q 326 553 488 575 q 217 521 282 548 q 212 521 212 521 q 201 526 201 521 l 152 656 q 293 722 228 656 q 537 1004 423 857 q 613 1134 591 1080 l 743 1053 q 738 1036 754 1036 q 667 998 700 1036 q 293 646 515 836 q 1053 673 472 646 q 836 890 960 781 l 852 906 z "},"吉":{"ha":1389,"x_min":65,"x_max":1324,"o":"m 1074 -119 q 960 -157 1025 -157 l 960 -5 l 429 -5 l 429 -114 q 315 -152 380 -152 q 320 217 320 -81 l 320 434 l 450 369 l 939 369 l 993 445 l 1118 358 q 1118 342 1128 353 l 1069 304 l 1069 228 q 1074 -119 1069 -22 m 960 331 l 429 331 l 429 27 l 960 27 l 960 331 m 640 1134 l 792 1063 q 792 1053 808 1063 l 743 1015 l 743 863 l 1118 863 l 1194 955 l 1324 841 l 1318 830 l 743 830 l 743 591 l 1015 591 l 1085 678 l 1215 570 l 1210 553 l 271 553 l 195 548 l 179 591 l 640 591 l 640 830 l 157 830 l 81 819 l 65 863 l 640 863 l 640 1134 z "},"吾":{"ha":1389,"x_min":54,"x_max":1340,"o":"m 228 787 l 494 787 l 548 987 l 217 987 l 152 977 l 136 1020 l 1047 1020 l 1118 1107 l 1248 998 l 1237 987 l 662 987 l 608 787 l 901 787 l 955 863 l 1074 781 q 1074 765 1085 776 l 1025 722 l 1025 488 l 1139 488 l 1210 575 l 1340 467 l 1335 456 l 141 456 l 71 445 l 54 488 l 412 488 l 488 754 l 309 754 l 244 743 l 228 787 m 1085 -114 q 971 -146 1031 -146 l 971 -49 l 429 -49 l 429 -125 q 315 -157 374 -157 q 315 -33 315 -119 q 320 152 320 81 l 320 358 l 445 293 l 949 293 l 1004 369 l 1128 282 q 1128 266 1139 277 l 1080 228 l 1080 174 q 1085 -114 1080 -5 m 971 260 l 429 260 l 429 -16 l 971 -16 l 971 260 m 922 754 l 597 754 l 526 488 l 922 488 l 922 754 z "},"四":{"ha":1389,"x_min":168,"x_max":1275,"o":"m 1215 -92 q 1107 -141 1177 -136 l 1107 27 l 277 27 l 277 -98 q 168 -141 239 -141 q 174 109 168 -71 q 179 673 179 445 l 179 1042 l 293 977 l 1085 977 l 1145 1053 l 1264 971 q 1264 955 1275 966 l 1210 906 l 1210 738 q 1215 -92 1210 76 m 868 412 q 911 369 868 369 l 955 369 q 1036 391 993 369 q 1107 304 1090 358 q 966 277 1069 277 l 879 277 q 770 385 770 277 l 770 944 l 597 944 l 597 836 q 532 396 597 526 q 277 146 477 260 l 277 65 l 1107 65 l 1107 944 l 868 944 l 868 412 m 277 179 q 456 434 412 298 q 499 852 499 570 l 499 944 l 277 944 l 277 179 z "},"回":{"ha":1389,"x_min":190,"x_max":1253,"o":"m 1199 -103 q 1090 -152 1150 -146 l 1090 16 l 298 16 l 298 -114 q 190 -152 250 -146 q 190 103 190 -81 q 195 662 195 434 l 195 1047 l 320 987 l 1069 987 l 1123 1063 l 1242 977 q 1242 960 1253 971 l 1194 917 l 1194 727 q 1199 -103 1194 65 m 1090 955 l 298 955 l 298 49 l 1090 49 l 1090 955 m 906 271 q 808 233 868 239 l 808 320 l 570 320 l 570 250 q 472 212 537 217 q 477 505 477 266 l 477 770 l 591 716 l 787 716 l 841 781 l 949 711 q 949 694 960 705 l 906 656 l 906 521 q 906 271 906 374 m 808 678 l 570 678 l 570 353 l 808 353 l 808 678 z "},"壮":{"ha":1389,"x_min":43,"x_max":1345,"o":"m 1183 65 l 1302 -43 l 1297 -54 l 618 -54 l 548 -65 l 532 -22 l 836 -22 l 836 629 l 586 629 l 510 624 l 494 667 l 836 667 l 836 1123 l 993 1047 q 993 1036 1004 1047 l 944 998 l 944 667 l 1134 667 l 1210 760 l 1345 646 l 1335 629 l 944 629 l 944 -22 l 1112 -22 l 1183 65 m 146 125 l 43 201 q 369 505 119 255 l 369 1128 l 515 1053 q 515 1042 532 1047 l 472 1004 l 472 -109 q 363 -152 429 -146 q 363 125 363 -60 q 369 445 369 331 q 217 228 277 331 q 163 130 168 163 q 146 125 157 114 m 109 901 q 271 743 228 803 q 298 667 298 711 q 222 559 288 581 q 190 608 201 559 q 92 884 168 765 l 109 901 z "},"夏":{"ha":1389,"x_min":60,"x_max":1340,"o":"m 1156 1080 l 1280 971 l 1275 960 l 678 960 q 591 846 646 901 l 944 846 l 993 917 l 1107 846 q 1107 830 1118 841 l 1069 792 l 1069 662 q 1074 407 1069 472 q 966 369 1036 369 l 966 418 l 624 418 q 597 380 613 407 q 543 304 559 326 l 879 304 l 939 363 l 1053 260 q 1053 244 1063 255 l 987 222 q 792 49 890 125 q 1340 -49 966 -27 l 1335 -71 q 1215 -157 1232 -81 q 705 0 879 -103 q 65 -157 472 -125 l 60 -136 q 624 60 423 -71 q 477 233 543 130 q 130 -27 358 98 l 114 -11 q 499 418 353 174 l 412 418 l 412 374 q 298 336 363 342 q 309 689 309 543 l 309 901 l 429 846 l 543 846 q 553 906 548 868 q 564 960 564 944 l 201 960 l 130 949 l 114 993 l 1090 993 l 1156 1080 m 412 553 l 412 450 l 966 450 l 966 553 l 412 553 m 412 684 l 412 586 l 966 586 l 966 684 l 412 684 m 966 819 l 412 819 l 412 716 l 966 716 l 966 819 m 879 271 l 510 271 q 499 255 510 266 q 689 98 586 163 q 879 271 798 179 z "},"天":{"ha":1389,"x_min":54,"x_max":1340,"o":"m 1188 678 l 1318 564 l 1313 553 l 787 553 q 1340 -49 922 92 l 1329 -71 q 1172 -136 1204 -60 q 749 553 819 60 l 705 553 q 65 -152 646 38 l 54 -136 q 591 553 526 92 l 168 553 l 92 543 l 76 586 l 597 586 q 624 955 618 743 l 277 955 l 206 944 l 190 987 l 1020 987 l 1090 1074 l 1210 966 l 1204 955 l 738 955 q 711 586 732 743 l 1112 586 l 1188 678 z "},"宁":{"ha":1389,"x_min":87,"x_max":1302,"o":"m 1139 662 l 1275 548 l 1270 532 l 754 532 l 754 -22 q 602 -152 754 -109 q 581 -141 586 -163 q 396 -11 586 -60 l 401 16 l 575 -5 q 646 54 651 -16 l 646 532 l 195 532 l 125 526 l 109 564 l 1063 564 l 1139 662 m 255 798 q 152 684 239 700 q 87 732 92 684 q 103 765 87 754 q 217 966 201 825 l 233 966 q 250 895 244 933 l 1107 895 l 1172 966 l 1291 857 q 1286 841 1302 841 l 1221 825 l 1053 705 l 1031 716 l 1112 863 l 255 863 q 255 798 255 830 m 564 1134 q 722 1058 651 1107 q 765 993 765 1036 q 694 901 754 917 q 656 939 673 901 q 553 1123 624 1042 l 564 1134 z "},"安":{"ha":1389,"x_min":54,"x_max":1340,"o":"m 1210 629 l 1340 510 l 1335 499 l 998 499 q 836 163 922 277 q 1177 16 1031 98 q 1232 -65 1232 -16 q 1183 -152 1226 -141 q 1139 -130 1172 -152 q 781 98 971 16 q 71 -152 618 -76 l 65 -130 q 678 146 548 -11 q 347 239 526 201 q 461 499 429 396 l 146 499 l 71 488 l 54 532 l 477 532 q 499 597 483 553 q 532 705 521 667 q 564 846 559 776 l 711 770 q 705 760 716 760 l 656 722 q 586 532 618 618 l 1128 532 l 1210 629 m 727 195 q 879 499 814 309 l 570 499 q 494 304 543 423 q 472 255 477 271 q 727 195 602 228 m 282 814 q 190 694 266 705 q 125 743 130 700 q 141 776 125 760 q 244 987 233 846 l 260 987 q 277 917 277 955 l 1107 917 l 1172 993 l 1291 879 q 1286 863 1302 863 l 1226 852 l 1063 732 l 1047 743 l 1118 884 l 282 884 q 282 857 282 873 q 282 814 288 830 m 591 1139 q 749 1069 689 1112 q 781 1015 781 1047 q 716 922 770 939 q 684 949 684 922 q 586 1128 651 1058 l 591 1139 z "},"尔":{"ha":1389,"x_min":81,"x_max":1302,"o":"m 1118 836 l 407 836 q 119 477 298 640 l 103 488 q 358 966 271 738 q 412 1139 391 1053 l 553 1063 q 564 1058 564 1058 q 553 1047 564 1053 q 472 966 510 1042 q 456 928 467 955 q 429 873 439 890 l 1112 873 l 1183 939 l 1291 819 q 1286 808 1302 814 l 1221 792 l 1009 635 l 998 651 l 1118 836 m 819 673 l 776 640 l 776 -27 q 613 -152 781 -103 q 597 -141 597 -152 q 418 -5 597 -54 l 423 16 l 602 -5 q 667 49 673 -11 l 667 765 l 819 694 q 819 673 836 689 m 434 553 l 570 467 q 564 450 581 450 q 488 385 515 434 q 98 -33 326 130 l 81 -16 q 380 423 250 163 q 434 553 418 494 m 879 526 q 1248 190 1107 369 q 1280 103 1280 152 q 1204 -5 1270 22 q 1166 38 1183 -5 q 863 510 1058 304 l 879 526 z "},"山":{"ha":1389,"x_min":146,"x_max":1259,"o":"m 1199 304 q 1204 -71 1199 54 q 1096 -109 1166 -103 l 1096 0 l 309 0 l 255 -65 l 152 11 q 152 22 146 22 l 201 60 l 201 841 l 353 770 q 353 760 363 770 l 304 722 l 304 33 l 640 33 l 640 1096 l 798 1036 q 808 1031 808 1031 q 798 1020 808 1025 l 749 977 l 749 33 l 1096 33 l 1096 841 l 1242 770 q 1242 760 1259 770 l 1199 716 l 1199 304 z "},"川":{"ha":1389,"x_min":33,"x_max":1259,"o":"m 293 1101 l 445 1031 q 445 1020 456 1031 l 396 977 l 396 667 q 331 141 401 293 q 43 -152 266 -16 l 33 -136 q 239 168 190 16 q 293 640 293 320 l 293 1101 m 1090 1118 l 1248 1047 q 1248 1036 1259 1047 l 1194 993 l 1194 363 q 1194 119 1194 222 q 1199 -114 1194 0 q 1085 -152 1166 -152 q 1090 363 1090 54 l 1090 1118 m 684 1009 l 830 939 q 830 928 841 933 l 781 890 l 781 624 q 787 146 781 374 q 673 109 727 103 q 673 146 673 168 q 684 624 684 499 l 684 1009 z "},"州":{"ha":1389,"x_min":54,"x_max":1253,"o":"m 363 1123 l 510 1053 q 510 1042 521 1053 l 467 1004 l 467 673 q 391 152 472 304 q 65 -152 320 -5 l 54 -136 q 298 174 239 11 q 363 646 363 336 l 363 1123 m 732 1080 l 879 1009 q 879 998 890 1009 l 830 960 l 830 521 q 836 43 830 271 q 727 5 803 11 q 732 521 732 212 l 732 1080 m 1096 1123 l 1242 1058 q 1242 1047 1253 1053 l 1194 1004 l 1194 472 q 1194 141 1194 250 q 1199 -114 1194 16 q 1085 -152 1166 -146 q 1096 467 1096 222 l 1096 1123 m 217 743 l 233 743 q 239 477 277 581 q 136 401 206 401 q 81 445 92 407 q 103 494 81 477 q 217 743 190 548 m 510 743 q 521 738 515 743 q 640 608 608 656 q 662 537 662 575 q 586 439 651 456 q 559 477 559 439 q 499 732 548 613 l 510 743 m 879 749 q 1015 613 971 678 q 1036 543 1036 575 q 960 445 1020 461 q 933 488 933 445 q 863 743 917 618 l 879 749 z "},"市":{"ha":1389,"x_min":65,"x_max":1329,"o":"m 1139 119 q 998 -5 1150 43 q 977 5 982 -11 q 819 119 966 92 l 825 141 l 971 125 q 1036 184 1042 114 l 1036 591 l 743 591 l 743 363 q 743 119 743 222 q 749 -114 743 0 q 629 -157 700 -152 q 640 363 640 54 l 640 591 l 353 591 l 353 33 q 244 -5 315 -5 q 255 412 255 179 l 255 689 l 374 624 l 640 624 l 640 846 l 157 846 l 81 836 l 65 879 l 1118 879 l 1194 977 l 1329 857 l 1324 846 l 743 846 l 743 624 l 1015 624 l 1069 700 l 1183 618 q 1183 608 1194 618 l 1139 564 l 1139 119 m 553 1128 q 732 1047 667 1090 q 776 982 776 1020 q 705 884 765 911 q 662 917 678 884 q 548 1118 629 1031 l 553 1128 z "},"广":{"ha":1389,"x_min":43,"x_max":1318,"o":"m 320 602 q 266 152 320 304 q 60 -152 217 5 l 43 -141 q 179 174 146 22 q 212 613 212 331 l 212 949 l 336 884 l 1118 884 l 1188 977 l 1318 863 l 1308 852 l 320 852 l 320 602 m 624 1134 q 781 1047 732 1090 q 819 982 819 1020 q 743 890 808 906 q 705 933 716 890 q 613 1123 678 1036 l 624 1134 z "},"庆":{"ha":1389,"x_min":33,"x_max":1345,"o":"m 1183 629 l 1302 521 l 1297 505 l 852 505 q 1345 -60 949 87 l 1340 -81 q 1194 -136 1232 -71 q 819 505 868 54 l 787 505 q 206 -152 770 -16 l 195 -136 q 684 505 667 71 l 429 505 l 358 499 l 342 543 l 689 543 q 689 608 689 564 q 694 678 694 651 q 694 857 694 787 l 846 803 q 846 787 857 798 l 798 749 q 792 543 798 635 l 1112 543 l 1183 629 m 206 993 l 331 922 l 727 922 q 705 955 711 933 q 613 1128 678 1053 l 618 1139 q 781 1058 738 1101 q 808 1009 808 1042 q 749 922 803 955 l 1107 922 l 1177 1015 l 1308 901 l 1302 890 l 309 890 l 309 667 q 255 168 309 331 q 49 -146 206 11 l 33 -130 q 174 195 141 33 q 206 700 206 358 l 206 993 z "},"建":{"ha":1389,"x_min":49,"x_max":1340,"o":"m 515 608 l 770 608 l 770 749 l 515 749 l 450 738 l 434 776 l 770 776 l 770 917 l 586 917 l 537 911 l 521 949 l 770 949 l 770 1134 l 911 1080 q 911 1063 922 1074 l 868 1031 l 868 949 l 1047 949 l 1096 1015 l 1204 944 q 1204 933 1215 939 l 1161 895 l 1161 814 l 1161 776 l 1188 776 l 1242 852 l 1340 760 l 1335 749 l 1161 749 q 1166 564 1161 613 q 1063 532 1123 537 l 1063 575 l 868 575 l 868 423 l 1025 423 l 1090 505 l 1210 401 l 1199 391 l 868 391 l 868 250 l 1118 250 l 1183 336 l 1313 228 l 1302 217 l 868 217 l 868 54 q 765 22 819 22 q 770 217 770 81 l 521 217 l 450 206 l 434 250 l 770 250 l 770 391 l 608 391 l 537 385 l 515 423 l 770 423 l 770 575 l 581 575 l 532 570 l 515 608 m 168 429 q 288 206 217 293 q 358 532 336 336 l 239 532 l 190 488 l 114 559 q 114 570 109 570 l 152 597 l 336 911 l 146 911 l 76 901 l 60 944 l 331 944 l 391 1004 l 494 922 q 494 906 505 917 l 434 879 l 239 564 l 342 564 l 391 635 l 505 553 q 499 537 515 548 l 450 505 q 353 141 418 277 q 971 -11 499 -11 q 1340 0 1139 -11 l 1340 -22 q 1237 -109 1253 -33 q 830 -103 928 -109 q 309 71 445 -76 q 65 -146 239 -38 l 49 -130 q 255 136 190 0 q 141 412 184 244 l 168 429 m 868 749 l 868 608 l 1063 608 l 1063 749 l 868 749 m 1063 917 l 868 917 l 868 776 l 1063 776 l 1063 917 z "},"徽":{"ha":1389,"x_min":27,"x_max":1351,"o":"m 722 -152 l 711 -136 q 1020 190 939 22 q 955 678 960 374 q 857 521 906 597 l 836 537 q 987 1004 917 711 q 993 1036 987 1015 q 1004 1128 1004 1096 l 1134 1069 q 1145 1063 1145 1063 q 1134 1053 1145 1058 q 1063 949 1085 1031 q 1015 814 1053 901 q 1004 787 1009 798 l 1177 787 l 1242 868 l 1351 770 l 1345 754 l 1248 754 q 1118 179 1210 342 q 1351 -65 1194 33 l 1345 -87 q 1215 -125 1259 -71 q 1063 92 1118 -22 q 722 -152 955 -49 m 857 922 q 863 770 857 841 q 781 738 836 743 l 868 667 l 863 651 l 613 651 l 673 608 q 667 597 684 597 q 602 570 629 597 q 564 543 591 559 q 467 483 532 521 q 656 477 548 477 q 765 597 722 537 l 846 515 q 846 505 857 505 q 770 477 808 505 q 488 293 635 380 q 770 309 613 293 q 732 363 760 326 q 711 385 716 374 l 722 396 q 852 320 803 358 q 890 255 890 288 q 836 195 879 206 q 814 217 825 195 q 803 239 808 222 q 787 271 803 250 q 727 266 765 271 q 662 255 684 260 l 662 -49 q 559 -141 662 -109 q 543 -136 543 -141 q 434 -33 537 -71 l 439 -16 l 537 -27 q 575 22 581 -38 l 575 244 q 494 228 537 239 q 412 206 439 222 q 396 206 396 201 l 363 293 q 456 320 407 288 q 613 439 532 374 q 418 401 456 418 q 407 401 407 396 q 401 407 407 401 l 374 483 q 461 532 418 488 q 564 651 505 570 l 434 651 l 380 646 l 369 684 l 716 684 l 770 749 l 781 738 l 781 792 l 510 792 l 467 749 l 391 803 q 391 819 385 814 l 423 846 l 423 1042 l 532 993 q 532 977 543 987 l 499 949 l 499 825 l 602 825 l 602 1134 l 711 1085 q 722 1080 722 1080 q 711 1069 722 1074 l 678 1042 l 678 825 l 781 825 l 781 1036 l 895 987 q 895 977 906 987 l 857 944 l 857 922 m 293 852 l 401 776 q 396 760 412 760 q 326 705 347 743 q 244 597 288 646 l 320 553 q 320 537 331 548 l 282 510 l 282 -114 q 190 -152 244 -152 q 190 -22 190 -114 q 195 266 195 141 l 195 537 q 38 391 136 467 l 27 407 q 244 743 163 575 q 282 819 260 765 q 293 852 288 841 m 1069 293 q 1150 754 1128 445 l 993 754 l 987 743 q 1069 293 1009 439 m 288 1118 l 385 1036 q 385 1020 396 1031 q 309 982 342 1020 q 71 776 206 873 l 54 792 q 288 1118 195 944 m 461 184 l 548 109 q 548 98 559 103 q 488 71 510 98 q 320 -65 407 0 l 304 -49 q 461 184 412 81 m 705 179 q 836 109 776 152 q 863 60 863 92 q 808 -11 852 5 q 787 16 792 -11 q 694 168 760 98 l 705 179 z "},"新":{"ha":1389,"x_min":49,"x_max":1340,"o":"m 1221 700 l 1340 597 l 1335 581 l 1161 581 l 1161 412 q 1166 -114 1161 98 q 1058 -157 1118 -152 q 1063 385 1063 65 l 1063 581 l 917 581 q 846 109 917 244 q 570 -152 787 -33 l 559 -136 q 770 152 727 5 q 819 640 819 288 l 819 1020 l 922 960 q 1047 998 971 971 q 1090 1015 1080 1009 q 1215 1080 1161 1047 l 1308 971 q 1297 960 1313 966 q 1177 955 1248 977 q 1156 949 1172 955 q 917 917 1004 922 l 917 629 l 917 613 l 1156 613 l 1221 700 m 472 -5 q 358 -125 483 -81 q 342 -125 342 -130 q 336 -114 336 -125 q 212 -16 336 -49 l 217 5 l 320 -5 q 380 54 385 -16 l 380 380 l 184 380 l 125 374 l 109 412 l 380 412 l 380 597 l 146 597 l 76 586 l 60 629 l 439 629 q 537 895 505 760 l 651 830 q 651 814 662 819 q 597 776 613 808 q 488 629 553 711 l 624 629 l 689 711 l 803 608 l 798 597 l 472 597 l 472 412 l 575 412 l 635 488 l 743 391 l 738 380 l 472 380 l 472 -5 m 651 1020 l 760 922 l 754 911 l 179 911 l 125 906 l 109 944 l 407 944 q 391 977 391 955 q 326 1123 369 1058 l 331 1134 q 467 1063 412 1107 q 488 1020 488 1047 q 434 944 483 977 l 591 944 l 651 1020 m 228 315 l 347 244 q 342 233 358 239 q 271 168 309 233 q 65 -71 184 49 l 49 -54 q 190 201 136 81 q 217 282 195 228 q 228 315 222 304 m 510 304 q 689 201 602 266 q 711 152 711 179 q 651 71 700 81 q 618 103 629 65 q 499 293 581 206 l 510 304 m 217 873 q 369 770 315 825 q 385 732 385 754 q 320 646 374 662 q 293 684 304 646 q 212 863 260 798 l 217 873 z "},"族":{"ha":1389,"x_min":38,"x_max":1351,"o":"m 1150 722 l 1264 618 l 1253 608 l 971 608 q 955 342 971 456 l 1134 342 l 1204 429 l 1324 320 l 1318 309 l 1009 309 q 1351 -71 1101 27 l 1345 -87 q 1210 -141 1242 -76 q 977 309 1015 -11 l 949 309 q 488 -152 911 -27 l 477 -136 q 846 309 808 33 l 635 309 l 570 298 l 553 342 l 852 342 q 873 608 873 456 l 776 608 q 602 412 684 488 l 586 429 q 732 722 678 581 q 765 830 760 776 l 895 760 q 890 743 906 754 q 825 684 846 738 q 798 640 808 667 l 1080 640 l 1150 722 m 54 -146 l 38 -136 q 174 206 141 33 q 212 684 212 374 l 212 841 l 130 841 l 71 836 l 54 873 l 461 873 l 532 955 l 640 852 l 629 841 l 309 841 l 309 700 q 309 613 309 651 l 412 613 l 467 684 l 575 608 q 575 591 586 602 l 526 553 q 505 49 526 326 q 363 -98 499 -54 q 353 -92 353 -103 q 233 22 353 -22 l 239 38 l 353 27 q 407 76 407 22 q 434 581 429 336 l 309 581 q 54 -146 309 87 m 1199 1004 l 1318 895 l 1308 884 l 754 884 q 575 656 694 770 l 559 673 q 716 1009 656 830 q 754 1134 738 1074 l 890 1058 q 884 1042 901 1053 q 814 982 841 1031 q 776 917 798 949 l 1123 917 l 1199 1004 m 244 1134 q 385 1047 331 1096 q 412 993 412 1020 q 342 901 401 917 q 315 939 320 901 q 239 1123 293 1036 l 244 1134 z "},"林":{"ha":1389,"x_min":43,"x_max":1351,"o":"m 879 1128 l 1015 1069 q 1015 1058 1025 1058 l 966 1020 l 966 803 l 1150 803 l 1221 890 l 1335 781 l 1329 770 l 1036 770 q 1351 157 1107 342 l 1345 141 q 1210 98 1248 163 q 1004 770 1047 282 l 966 770 l 966 532 q 966 353 966 499 q 971 -119 971 22 q 868 -152 933 -146 q 879 483 879 206 l 879 618 q 510 71 754 293 l 494 87 q 830 770 727 385 l 743 770 l 673 760 l 656 803 l 879 803 l 879 1128 m 559 873 l 656 776 l 651 765 l 439 765 l 439 613 q 613 521 548 570 q 646 461 646 505 q 586 374 640 391 q 553 401 564 369 q 439 586 521 499 l 439 -119 q 336 -152 401 -146 q 347 488 347 195 l 347 570 q 60 114 228 293 l 43 130 q 320 765 222 418 l 157 765 l 87 754 l 71 798 l 347 798 l 347 1128 l 483 1069 q 483 1053 494 1063 l 439 1020 l 439 798 l 499 798 l 559 873 z "},"江":{"ha":1389,"x_min":49,"x_max":1351,"o":"m 1161 1004 l 1286 895 l 1275 879 l 917 879 l 917 -11 l 1145 -11 l 1221 87 l 1351 -33 l 1345 -43 l 472 -43 l 396 -54 l 380 -11 l 808 -11 l 808 879 l 570 879 l 494 873 l 477 917 l 1090 917 l 1161 1004 m 477 808 l 499 792 l 331 336 q 298 206 293 255 q 315 49 298 146 q 331 -76 331 -38 q 293 -130 331 -130 q 195 -81 217 -119 q 190 -54 190 -71 q 206 157 206 43 q 76 266 212 228 l 76 282 q 179 271 125 282 q 239 320 212 271 l 477 808 m 60 803 q 250 722 174 770 q 288 656 288 689 q 222 553 277 575 q 184 591 206 548 q 49 792 146 705 l 60 803 m 184 1090 q 380 1004 309 1058 q 418 949 412 982 q 358 852 407 873 q 320 884 331 852 q 174 1074 271 993 l 184 1090 z "},"河":{"ha":1389,"x_min":49,"x_max":1340,"o":"m 906 244 q 803 201 868 206 l 803 288 l 618 288 l 618 195 q 515 152 575 163 q 521 250 515 190 q 526 624 526 472 l 526 770 l 635 711 l 787 711 l 836 781 l 944 700 q 955 694 955 694 q 944 684 955 689 l 901 646 l 901 608 q 906 244 901 358 m 1215 1080 l 1340 966 l 1335 955 l 1183 955 l 1183 -27 q 1036 -146 1188 -98 q 1015 -141 1020 -157 q 830 -5 1020 -43 l 836 16 l 1009 0 q 1080 60 1085 -16 l 1080 955 l 543 955 l 467 944 l 450 987 l 1145 987 l 1215 1080 m 439 863 l 461 852 l 309 336 q 282 201 282 255 q 298 43 282 157 q 315 -76 315 -43 q 277 -136 320 -130 q 179 -81 217 -125 q 179 -76 179 -81 q 179 -60 174 -65 q 190 152 190 49 q 76 260 201 228 l 76 277 q 168 271 125 271 q 217 309 201 260 l 439 863 m 803 673 l 618 673 l 618 320 l 803 320 l 803 673 m 60 808 q 233 716 174 765 q 271 656 271 689 q 206 559 260 575 q 168 597 179 553 q 49 792 141 694 l 60 808 m 157 1085 q 342 998 244 1058 q 374 939 374 966 q 315 846 363 868 q 277 884 288 841 q 152 1074 239 982 l 157 1085 z "},"治":{"ha":1389,"x_min":65,"x_max":1297,"o":"m 1177 -109 q 1069 -146 1128 -141 l 1069 -11 l 673 -11 l 673 -114 q 564 -152 635 -152 q 570 60 570 -43 q 570 342 570 141 l 570 477 l 689 418 l 1053 418 l 1107 494 l 1221 418 q 1221 401 1232 412 l 1172 358 l 1172 239 q 1177 -109 1172 92 m 1069 385 l 673 385 l 673 22 l 1069 22 l 1069 385 m 814 1145 l 949 1063 q 944 1047 960 1047 q 863 987 901 1036 q 602 662 754 830 q 1139 689 944 678 q 1009 890 1085 803 l 1020 906 q 1264 689 1177 792 q 1297 602 1297 651 q 1232 510 1286 526 q 1199 543 1210 510 q 1161 651 1183 597 q 629 570 852 613 q 532 543 564 559 q 521 543 521 537 l 472 662 q 575 722 548 673 q 754 1004 678 846 q 814 1145 792 1090 m 477 906 l 505 895 l 320 342 q 298 212 298 255 q 315 54 298 163 q 320 27 315 43 q 326 -60 326 -43 q 282 -119 320 -114 q 190 -65 217 -103 q 184 -38 184 -54 q 212 163 212 87 q 87 271 217 233 l 92 288 q 136 288 103 288 q 190 282 174 282 q 239 320 222 277 l 477 906 m 190 1085 q 358 998 293 1047 q 391 939 391 971 q 331 852 385 868 q 293 890 304 846 q 179 1074 255 993 l 190 1085 m 71 792 q 239 705 184 754 q 271 651 271 678 q 212 559 260 575 q 179 597 190 559 q 65 781 146 684 l 71 792 z "},"津":{"ha":1389,"x_min":54,"x_max":1335,"o":"m 472 928 l 754 928 l 754 1128 l 901 1069 q 901 1053 911 1069 l 857 1025 l 857 928 l 1047 928 l 1096 993 l 1204 917 q 1204 906 1215 917 l 1166 868 l 1166 760 l 1166 754 l 1177 754 l 1237 825 l 1335 732 l 1329 722 l 1166 722 q 1166 505 1166 608 q 1063 472 1123 477 l 1063 543 l 857 543 l 857 380 l 1053 380 l 1118 461 l 1237 363 l 1226 347 l 857 347 l 857 190 l 1134 190 l 1204 277 l 1329 168 l 1318 157 l 857 157 l 857 -125 q 749 -157 808 -157 q 754 157 749 22 l 456 157 l 385 146 l 369 190 l 754 190 q 754 347 754 271 l 553 347 l 477 342 l 461 380 l 754 380 l 754 543 l 559 543 l 499 537 l 483 575 l 754 575 l 754 722 l 499 722 l 439 716 l 423 754 l 754 754 l 754 895 l 548 895 l 488 890 l 472 928 m 423 879 l 445 873 l 298 336 q 277 212 277 250 q 293 49 277 125 q 309 -71 309 -43 q 271 -130 309 -130 q 179 -76 217 -125 q 174 -54 174 -71 q 190 157 195 98 q 71 266 201 233 l 76 282 q 119 282 92 282 q 163 277 152 277 q 217 326 195 266 l 423 879 m 857 722 l 857 575 l 1063 575 l 1063 722 l 857 722 m 1063 895 l 857 895 l 857 754 l 1063 754 l 1063 895 m 60 814 q 244 716 179 765 q 271 662 271 694 q 206 570 260 591 q 168 608 184 570 q 54 798 136 711 l 60 814 m 157 1090 q 342 998 266 1058 q 369 944 374 982 q 309 857 358 879 q 271 895 288 857 q 152 1080 239 993 l 157 1090 z "},"浙":{"ha":1389,"x_min":43,"x_max":1340,"o":"m 830 1009 l 933 955 q 1101 1031 1031 987 q 1210 1096 1161 1063 l 1297 998 q 1291 982 1302 987 q 1183 966 1259 993 q 928 906 1074 933 l 928 629 l 1150 629 l 1215 716 l 1340 608 l 1335 597 l 1166 597 l 1166 412 q 1166 195 1166 347 q 1172 -114 1172 -5 q 1063 -157 1134 -152 q 1069 -43 1063 -119 q 1074 385 1074 244 l 1074 597 l 928 597 q 629 -152 944 38 l 618 -136 q 787 168 743 11 q 830 640 830 326 l 830 776 l 825 765 l 629 765 l 629 526 q 798 608 705 559 l 814 586 q 629 467 716 526 l 629 -22 q 505 -130 629 -87 q 483 -119 488 -141 q 353 -16 477 -54 l 358 5 l 477 -11 q 537 49 543 -16 l 537 401 q 515 385 526 396 q 477 358 505 380 q 401 288 423 326 q 385 288 396 282 l 309 380 q 537 483 374 407 l 537 765 l 450 765 l 385 760 l 374 787 l 266 347 q 244 217 244 260 q 255 60 244 146 q 260 11 255 43 q 266 -54 266 -22 q 222 -114 266 -114 q 141 -60 174 -109 q 141 -49 141 -54 q 141 -33 136 -38 q 157 163 157 81 q 54 271 168 250 l 54 293 q 136 288 87 288 q 184 326 168 277 l 380 917 l 401 911 l 374 798 l 537 798 l 537 1134 l 673 1069 q 673 1053 684 1069 l 629 1020 l 629 798 l 667 798 l 732 879 l 830 781 l 830 1009 m 54 803 q 217 711 163 760 q 244 662 250 689 q 179 570 233 586 q 146 608 157 570 q 43 792 125 694 l 54 803 m 136 1090 q 298 1004 255 1042 q 326 955 326 982 q 266 863 315 879 q 233 901 250 863 q 125 1080 206 982 l 136 1090 z "},"海":{"ha":1389,"x_min":49,"x_max":1340,"o":"m 1226 553 l 1340 445 l 1329 434 l 1112 434 l 1096 190 q 1096 152 1096 174 l 1139 152 l 1199 239 l 1318 130 l 1313 119 l 1090 119 q 895 -152 1085 -103 q 873 -141 879 -157 q 711 -22 873 -54 l 711 0 l 884 -11 q 987 119 971 -27 l 559 119 l 505 65 l 418 136 q 412 152 412 146 l 456 190 l 499 434 l 445 434 l 369 429 l 353 467 l 505 467 l 564 814 q 374 608 477 705 l 358 624 q 570 993 499 825 q 613 1128 602 1080 l 743 1053 q 738 1042 754 1053 q 662 971 705 1031 q 656 960 662 966 q 651 949 656 955 l 1090 949 l 1161 1031 l 1280 928 l 1275 911 l 629 911 q 613 884 624 901 q 564 819 586 841 l 667 760 l 1015 760 l 1069 830 l 1183 743 q 1183 727 1194 738 l 1128 684 l 1118 467 l 1156 467 l 1226 553 m 993 152 q 993 190 993 174 l 1015 434 l 597 434 l 548 152 l 993 152 m 1031 722 l 646 722 l 602 467 l 1015 467 l 1031 722 m 423 922 l 445 911 l 266 369 q 244 239 244 277 q 260 87 244 163 q 266 33 260 65 q 271 -22 271 -5 q 233 -76 271 -76 q 141 -22 179 -65 q 141 -16 141 -22 q 141 0 136 -5 q 157 195 157 98 q 49 293 168 271 l 54 309 q 141 309 92 309 q 190 358 168 304 l 423 922 m 54 825 q 217 722 163 776 q 239 673 239 700 q 174 581 239 613 q 141 618 157 581 q 49 814 125 700 l 54 825 m 179 1107 q 336 1020 277 1069 q 363 971 363 998 q 304 879 358 901 q 271 917 277 884 q 168 1096 244 1009 l 179 1107 m 711 401 q 846 309 798 358 q 868 266 868 293 q 798 179 857 195 q 770 217 781 179 q 705 391 760 293 l 711 401 m 743 705 q 873 624 830 662 q 895 575 895 602 q 825 494 884 510 q 798 526 803 494 q 732 694 776 629 l 743 705 z "},"港":{"ha":1389,"x_min":43,"x_max":1351,"o":"m 1194 743 l 1313 640 l 1308 624 l 939 624 q 1351 347 1090 423 l 1345 326 q 1226 260 1259 336 q 1047 401 1134 309 l 1047 396 l 1004 363 l 1004 293 q 1004 222 1004 277 q 1009 141 1009 163 q 906 109 977 119 l 906 168 l 656 168 l 656 71 q 738 -22 646 -33 l 1036 -22 q 1145 49 1139 -27 l 1177 190 l 1199 190 l 1204 54 q 1253 -16 1210 0 q 1101 -109 1210 -114 l 689 -109 q 559 22 553 -114 l 559 369 q 309 168 456 255 l 293 184 q 624 624 499 374 l 450 624 l 380 618 l 369 640 l 293 347 q 271 217 271 260 q 282 60 271 130 q 298 -65 298 -22 q 260 -119 293 -114 q 168 -65 206 -109 q 163 -43 163 -54 q 184 174 184 87 q 71 277 190 250 l 71 293 q 119 293 87 293 q 163 288 152 288 q 212 336 195 282 l 396 836 l 423 825 l 374 662 l 608 662 l 608 863 l 526 863 l 456 857 l 439 895 l 608 895 l 608 1134 l 743 1069 q 754 1063 754 1063 q 743 1053 754 1058 l 700 1020 l 700 895 l 884 895 l 884 1134 l 1025 1069 q 1025 1053 1036 1063 l 977 1020 l 977 895 l 1074 895 l 1139 977 l 1253 879 l 1242 863 l 977 863 l 977 662 l 1123 662 l 1194 743 m 890 418 l 939 483 l 1020 429 q 895 624 949 515 l 732 624 q 618 439 678 521 l 667 418 l 890 418 m 906 385 l 656 385 l 656 201 l 906 201 l 906 385 m 700 863 l 700 662 l 884 662 l 884 863 l 700 863 m 54 814 q 222 722 157 770 q 260 667 260 700 q 195 575 250 597 q 163 608 168 575 q 43 798 119 722 l 54 814 m 163 1085 q 336 998 277 1042 q 369 944 369 971 q 309 857 358 873 q 277 890 288 857 q 157 1074 244 982 l 163 1085 z "},"湖":{"ha":1389,"x_min":54,"x_max":1291,"o":"m 1237 -33 q 1112 -152 1242 -109 q 1090 -141 1090 -157 q 955 -27 1080 -60 l 960 -5 l 1085 -16 q 1145 43 1150 -33 l 1145 363 l 949 363 q 613 -157 922 38 l 597 -141 q 819 179 765 22 q 873 646 873 336 l 873 1058 l 982 993 l 1128 993 l 1177 1063 l 1280 987 q 1280 971 1291 982 l 1237 933 l 1237 -33 m 749 884 l 857 787 l 852 770 l 613 770 l 613 543 l 640 543 l 689 608 l 792 537 q 792 526 803 532 l 743 483 l 743 119 q 662 76 716 81 l 662 184 l 477 184 l 477 65 q 385 22 439 22 q 391 483 391 146 l 391 597 l 488 543 l 532 543 l 532 770 l 369 770 l 266 358 q 250 228 250 304 q 266 71 250 179 q 271 11 266 43 q 277 -43 277 -27 q 233 -98 277 -98 q 157 -43 184 -87 q 152 -22 152 -33 q 168 179 168 76 q 60 282 174 250 l 60 298 q 141 298 103 298 q 190 336 174 288 l 391 960 l 418 955 l 380 803 l 532 803 l 532 1128 l 656 1069 q 667 1063 667 1063 q 656 1053 667 1058 l 613 1020 l 613 803 l 689 803 l 749 884 m 662 510 l 477 510 l 477 217 l 662 217 l 662 510 m 960 635 q 955 396 960 499 l 1145 396 l 1145 662 l 960 662 l 960 635 m 1145 960 l 960 960 l 960 694 l 1145 694 l 1145 960 m 65 808 q 201 722 146 770 q 239 662 239 694 q 179 570 228 591 q 146 608 163 570 q 54 792 130 700 l 65 808 m 146 1090 q 293 1015 201 1074 q 326 955 326 987 q 271 868 315 884 q 239 906 250 868 q 141 1080 212 998 l 146 1090 z "},"湾":{"ha":1389,"x_min":65,"x_max":1329,"o":"m 608 179 l 559 130 l 472 195 q 472 206 472 206 l 510 239 l 570 445 l 662 374 l 1063 374 l 1063 505 l 575 505 l 521 499 l 505 537 l 1047 537 l 1090 602 l 1204 532 q 1204 521 1215 532 l 1161 483 l 1161 461 q 1161 401 1161 445 q 1166 331 1166 353 q 1063 298 1123 298 l 1063 342 l 646 342 l 602 212 l 1112 212 l 1161 277 l 1275 195 q 1275 184 1286 190 l 1226 152 q 1177 -11 1210 103 q 993 -152 1139 -130 q 982 -157 982 -157 q 977 -146 977 -152 q 830 -22 977 -71 l 830 -5 l 987 -27 q 1074 16 1053 -43 q 1123 179 1101 76 l 608 179 m 1210 1036 l 1329 928 l 1324 917 l 998 917 l 998 841 q 1004 613 998 711 q 911 581 960 581 l 911 917 l 787 917 l 787 602 q 694 570 749 575 q 700 841 700 667 l 700 917 l 499 917 l 439 906 l 423 949 l 846 949 q 819 977 830 949 q 743 1128 798 1063 l 749 1139 q 890 1074 846 1107 q 917 1025 917 1058 q 852 949 906 971 l 1139 949 l 1210 1036 m 407 857 l 434 852 l 288 326 q 271 195 271 260 q 288 43 271 114 q 298 -71 298 -22 q 255 -125 298 -125 q 168 -76 201 -119 q 163 -49 163 -65 q 184 146 184 38 q 76 255 195 222 l 76 271 q 157 266 119 271 q 206 309 190 260 l 407 857 m 548 852 l 662 781 q 662 770 673 776 q 597 727 624 765 q 401 521 515 618 l 385 537 q 499 732 472 673 q 548 852 526 798 m 1047 830 l 1053 841 q 1259 738 1161 803 q 1302 673 1302 705 q 1248 586 1297 602 q 1210 613 1232 586 q 1047 830 1161 722 m 157 1074 q 326 993 239 1047 q 358 928 358 971 q 298 846 347 863 q 266 879 271 846 q 152 1063 228 982 l 157 1074 m 76 798 q 222 711 174 754 q 255 651 255 684 q 190 559 244 581 q 157 597 163 564 q 65 787 136 684 l 76 798 z "},"澳":{"ha":1389,"x_min":43,"x_max":1340,"o":"m 760 1139 l 884 1085 q 895 1074 895 1080 q 884 1069 895 1069 q 825 1025 846 1058 q 776 960 808 998 q 765 944 770 949 l 1090 944 l 1145 1015 l 1253 939 q 1253 922 1264 933 l 1204 879 l 1204 732 q 1210 353 1204 483 q 1112 315 1161 315 l 1112 911 l 581 911 l 581 336 q 488 298 548 304 q 488 429 488 336 q 494 716 494 591 l 494 998 l 608 944 l 711 944 q 760 1139 738 1020 m 1221 315 l 1340 212 l 1335 201 l 906 201 q 1340 -49 1058 -11 l 1340 -71 q 1226 -152 1253 -76 q 873 201 966 -65 l 852 201 q 342 -157 792 -71 l 336 -136 q 749 201 678 0 l 461 201 l 391 190 l 369 233 l 760 233 q 776 358 776 288 l 911 309 q 911 293 922 304 q 863 239 879 282 q 863 233 863 239 l 1150 233 l 1221 315 m 1009 722 l 1090 640 l 1085 624 l 879 624 l 879 581 q 1015 526 966 553 q 1053 467 1053 499 q 1009 396 1047 412 q 977 423 993 396 q 879 559 944 494 l 879 385 q 803 353 836 353 l 803 532 q 613 363 732 450 l 597 380 q 776 624 689 488 l 667 624 l 618 618 l 602 656 l 803 656 l 803 901 l 917 852 q 917 836 928 846 l 879 808 l 879 656 l 955 656 l 1009 722 m 412 879 l 434 868 l 282 342 q 260 212 260 271 q 271 54 260 125 q 288 -71 288 -27 q 250 -125 282 -119 q 157 -71 195 -114 q 152 -49 152 -60 q 174 168 174 81 q 60 271 179 244 l 65 288 q 109 288 81 288 q 152 282 141 282 q 201 331 184 277 l 412 879 m 54 798 q 222 711 157 760 q 260 656 260 689 q 195 564 250 586 q 163 597 168 564 q 43 787 119 711 l 54 798 m 157 1085 q 331 993 266 1042 q 363 939 363 971 q 304 857 353 873 q 271 890 282 852 q 146 1069 233 982 l 157 1085 m 982 863 l 1069 792 q 1069 781 1080 781 q 1009 754 1042 787 q 977 722 998 743 q 906 667 955 705 l 895 684 q 982 863 955 781 m 635 852 q 732 792 694 825 q 760 738 765 770 q 705 673 749 684 q 678 705 689 673 q 629 846 662 798 l 635 852 z "},"甘":{"ha":1389,"x_min":49,"x_max":1345,"o":"m 901 1134 l 1058 1063 q 1058 1053 1069 1053 l 1009 1015 l 1009 792 l 1134 792 l 1210 890 l 1345 776 l 1335 760 l 1009 760 l 1009 363 q 1009 119 1009 228 q 1015 -114 1009 5 q 901 -152 977 -146 l 901 -22 l 461 -22 l 461 -114 q 347 -152 423 -146 q 347 -114 347 -92 q 358 363 358 239 l 358 760 l 141 760 l 65 754 l 49 792 l 358 792 l 358 1134 l 510 1063 q 510 1053 521 1053 l 461 1015 l 461 792 l 901 792 l 901 1134 m 461 396 l 461 16 l 901 16 l 901 396 l 461 396 m 461 760 l 461 429 l 901 429 l 901 760 l 461 760 z "},"疆":{"ha":1389,"x_min":43,"x_max":1340,"o":"m 222 564 l 174 521 l 92 581 q 92 597 87 591 l 125 629 l 163 846 l 255 792 l 385 792 l 385 987 l 146 987 l 103 982 l 87 1020 l 369 1020 l 412 1080 l 515 1015 q 515 998 526 1009 l 477 960 l 477 922 q 477 743 477 857 q 385 711 445 722 l 385 760 l 239 760 l 206 597 l 391 597 l 439 662 l 543 586 q 543 575 553 581 l 494 532 q 477 103 494 412 q 309 -157 483 -119 q 293 -146 293 -163 q 157 -43 282 -71 l 163 -22 l 304 -33 q 391 119 380 -43 q 391 168 391 146 q 109 43 125 71 q 92 43 92 38 l 43 130 q 141 146 71 136 q 184 157 168 152 l 184 326 l 130 326 l 76 315 l 60 353 l 184 353 l 184 515 l 298 461 q 298 450 315 461 l 266 423 l 266 353 l 288 353 l 331 412 l 401 342 q 412 564 401 456 l 222 564 m 1204 22 q 1107 -11 1161 -5 l 1107 27 l 689 27 l 689 0 q 591 -27 646 -27 q 597 282 597 81 l 597 423 l 705 374 l 1085 374 l 1134 439 l 1242 369 q 1242 353 1253 363 l 1199 315 l 1199 250 q 1204 22 1199 130 m 1194 586 q 1096 553 1161 553 l 1096 586 l 705 586 l 705 570 q 608 543 667 543 q 608 591 608 559 q 618 852 618 749 l 618 949 l 727 901 l 1074 901 l 1123 971 l 1232 895 q 1232 879 1242 890 l 1188 841 l 1188 814 q 1194 586 1188 694 m 1226 5 l 1340 -92 l 1335 -103 l 553 -103 l 499 -109 l 483 -76 l 1166 -76 l 1226 5 m 1226 570 l 1340 477 l 1335 461 l 602 461 l 548 456 l 532 494 l 1166 494 l 1226 570 m 1204 1101 l 1313 1009 l 1308 993 l 613 993 l 559 987 l 543 1025 l 1139 1025 l 1204 1101 m 944 184 l 944 54 l 1107 54 l 1107 184 l 944 184 m 1107 342 l 944 342 l 944 217 l 1107 217 l 1107 342 m 689 184 l 689 54 l 852 54 l 852 184 l 689 184 m 689 342 l 689 217 l 852 217 l 852 342 l 689 342 m 944 727 l 944 613 l 1096 613 l 1096 727 l 944 727 m 391 206 q 396 266 396 228 q 401 326 401 304 l 266 326 l 266 174 q 391 206 326 190 m 705 727 l 705 613 l 857 613 l 857 727 l 705 727 m 1096 873 l 944 873 l 944 760 l 1096 760 l 1096 873 m 705 873 l 705 760 l 857 760 l 857 873 l 705 873 z "},"省":{"ha":1389,"x_min":60,"x_max":1318,"o":"m 60 342 q 380 505 184 396 l 380 624 l 488 570 q 814 814 678 694 q 917 922 873 873 l 1025 825 q 1020 814 1036 814 q 928 776 966 808 q 624 564 765 640 l 960 564 l 1015 635 l 1139 553 q 1139 537 1139 548 l 1090 499 l 1090 309 q 1090 -109 1090 71 q 982 -146 1058 -141 l 982 -43 l 488 -43 l 488 -119 q 374 -152 445 -152 q 380 304 380 -76 l 380 439 q 71 320 233 374 l 60 342 m 488 152 l 488 -11 l 982 -11 l 982 152 l 488 152 m 488 342 l 488 184 l 982 184 l 982 342 l 488 342 m 564 532 q 532 515 553 526 q 488 488 499 499 l 488 374 l 982 374 l 982 532 l 564 532 m 391 1036 l 521 955 q 515 939 532 939 q 434 884 477 939 q 103 581 288 711 l 87 597 q 331 917 228 754 q 391 1036 374 987 m 635 1134 l 781 1080 q 781 1063 792 1074 l 738 1025 l 738 776 q 629 738 694 738 q 635 1004 635 890 l 635 1134 m 1259 705 q 1221 732 1242 700 q 949 1015 1128 895 l 960 1031 q 1286 863 1134 966 q 1318 798 1318 830 q 1259 705 1313 716 z "},"福":{"ha":1389,"x_min":38,"x_max":1335,"o":"m 597 326 l 597 526 l 711 461 l 1145 461 l 1194 537 l 1308 456 q 1308 445 1324 450 l 1259 401 l 1259 239 q 1264 43 1259 174 q 1264 -109 1264 -65 q 1166 -152 1226 -146 l 1166 -27 l 694 -27 l 694 -114 q 591 -152 646 -152 q 597 54 597 -43 q 597 326 597 130 m 445 901 l 559 814 q 553 798 570 808 l 499 770 q 380 570 445 656 l 380 537 q 532 461 456 510 q 553 412 553 439 q 499 331 548 347 q 467 369 477 326 q 380 510 429 456 l 380 -114 q 282 -152 342 -152 q 293 288 293 174 l 293 450 q 54 233 206 347 l 38 255 q 401 803 293 515 l 157 803 l 81 792 l 65 836 l 391 836 l 445 901 m 678 776 l 678 901 l 787 841 l 1063 841 l 1112 911 l 1221 841 q 1221 825 1232 836 l 1177 787 l 1177 749 q 1183 575 1177 684 q 1080 543 1145 553 l 1080 608 l 770 608 l 770 564 q 673 537 732 537 q 678 689 673 581 q 678 776 678 760 m 1080 808 l 770 808 l 770 640 l 1080 640 l 1080 808 m 977 201 l 977 5 l 1166 5 l 1166 201 l 977 201 m 1166 429 l 977 429 l 977 233 l 1166 233 l 1166 429 m 694 201 l 694 5 l 879 5 l 879 201 l 694 201 m 694 429 l 694 233 l 879 233 l 879 429 l 694 429 m 1215 1096 l 1335 993 l 1329 982 l 635 982 l 564 971 l 548 1015 l 1145 1015 l 1215 1096 m 233 1134 q 385 1025 331 1085 q 407 977 407 1004 q 331 895 391 911 q 298 933 315 890 q 222 1123 277 1047 l 233 1134 z "},"维":{"ha":1389,"x_min":54,"x_max":1340,"o":"m 1215 109 l 1340 -5 l 1335 -16 l 711 -16 l 711 -119 q 608 -157 662 -157 q 613 -5 613 -92 q 613 260 613 60 l 613 689 q 477 499 559 597 l 456 515 q 662 977 575 716 q 700 1107 694 1058 l 825 1036 q 825 1020 836 1031 q 760 955 781 1009 q 743 922 754 944 q 716 868 732 906 l 727 863 l 1134 863 l 1199 939 l 1308 841 l 1302 830 l 1020 830 l 1020 597 l 1118 597 l 1177 673 l 1286 575 l 1280 559 l 1020 559 l 1020 320 l 1112 320 l 1177 396 l 1286 298 l 1280 288 l 1020 288 l 1020 16 l 1145 16 l 1215 109 m 439 879 l 559 798 q 559 787 570 792 q 494 738 521 781 q 206 358 347 510 q 385 374 260 363 q 532 385 483 380 l 537 363 q 250 293 396 336 q 152 244 168 266 q 136 250 141 233 l 87 358 q 195 429 157 374 q 336 651 260 510 q 228 624 304 640 q 201 613 244 624 q 114 575 136 597 q 98 581 103 575 l 54 684 q 141 749 109 684 q 255 998 184 836 q 288 1118 282 1074 l 407 1053 q 407 1036 418 1047 q 342 982 363 1031 q 157 684 260 825 q 239 684 179 684 q 358 678 320 678 l 391 749 q 439 879 418 803 m 711 288 l 711 16 l 917 16 l 917 288 l 711 288 m 711 559 l 711 320 l 917 320 l 917 559 l 711 559 m 711 830 l 711 597 l 917 597 l 917 830 l 711 830 m 543 157 l 548 141 q 429 92 510 125 q 217 5 277 33 q 130 -54 152 -27 q 114 -49 125 -60 l 54 60 q 543 157 260 92 m 879 1123 q 1015 1020 960 1074 q 1036 960 1036 993 q 966 884 1025 895 q 939 922 949 884 q 868 1112 917 1031 l 879 1123 z "},"肃":{"ha":1389,"x_min":49,"x_max":1340,"o":"m 217 624 l 629 624 l 629 760 l 152 760 l 81 754 l 65 792 l 629 792 l 629 928 l 315 928 l 250 922 l 233 960 l 629 960 l 629 1134 l 776 1069 q 776 1058 787 1069 l 732 1020 l 732 960 l 998 960 l 1047 1031 l 1161 960 q 1161 944 1172 955 l 1118 906 l 1118 792 l 1161 792 l 1226 873 l 1340 776 l 1335 760 l 1118 760 q 1118 564 1118 656 q 1020 532 1074 537 l 1020 591 l 732 591 l 732 -92 q 624 -136 705 -130 q 629 396 629 65 l 629 591 l 298 591 l 233 581 l 217 624 m 1042 526 l 1183 461 q 1183 445 1194 456 l 1139 412 l 1139 304 q 1145 98 1139 250 q 1145 -114 1145 -60 q 1042 -146 1107 -146 l 1042 526 m 320 385 q 60 -152 342 33 l 49 -136 q 222 412 239 60 l 222 537 l 363 477 q 363 461 374 472 l 320 429 l 320 385 m 732 760 l 732 624 l 1020 624 l 1020 760 l 732 760 m 1020 928 l 732 928 l 732 792 l 1020 792 l 1020 928 m 488 445 l 608 369 q 608 358 618 369 q 543 298 570 347 q 331 -22 461 130 l 315 -5 q 445 304 391 136 q 456 331 450 315 q 488 445 472 374 m 781 439 q 949 228 879 331 q 982 136 982 179 q 911 27 971 49 q 873 76 884 27 q 770 429 852 255 l 781 439 z "},"自":{"ha":1389,"x_min":282,"x_max":1134,"o":"m 591 1139 l 727 1074 q 727 1063 743 1063 q 667 1015 700 1058 q 586 890 635 949 l 944 890 l 998 966 l 1123 884 q 1123 873 1134 884 l 1074 825 l 1074 494 q 1080 -103 1074 49 q 966 -146 1042 -146 l 966 0 l 396 0 l 396 -114 q 282 -152 363 -152 q 293 548 293 125 l 293 955 l 418 890 l 526 890 q 591 1139 570 1031 m 396 304 l 396 33 l 966 33 l 966 304 l 396 304 m 966 852 l 396 852 l 396 613 l 966 613 l 966 852 m 396 575 l 396 336 l 966 336 l 966 575 l 396 575 z "},"苏":{"ha":1389,"x_min":76,"x_max":1329,"o":"m 586 819 l 732 749 q 732 738 743 749 l 689 705 q 684 656 689 689 q 678 602 684 618 l 884 602 l 933 673 l 1053 591 q 1053 575 1063 586 l 1004 537 q 998 472 1004 515 q 977 125 993 228 q 770 -157 971 -114 q 749 -146 754 -163 q 597 -11 749 -60 l 602 16 l 754 -11 q 873 130 863 -43 q 901 564 890 288 l 673 564 q 673 526 673 553 q 667 483 667 499 q 152 -163 651 16 l 141 -146 q 564 494 548 81 q 570 532 570 505 q 575 564 575 553 l 260 564 l 195 559 l 179 602 l 575 602 q 586 819 591 711 m 543 754 q 439 722 494 722 q 445 911 439 819 l 163 911 l 92 906 l 76 949 l 445 949 l 445 960 l 445 1134 l 581 1080 q 581 1069 591 1074 l 543 1031 l 543 949 l 830 949 l 830 1134 l 971 1080 q 971 1063 982 1074 l 928 1031 l 928 960 l 928 949 l 1128 949 l 1199 1036 l 1329 928 l 1324 911 l 928 911 q 933 781 933 873 q 830 743 884 743 l 830 911 l 543 911 l 543 754 m 1085 456 q 1297 266 1237 336 q 1324 206 1324 239 q 1248 103 1313 119 q 1210 152 1221 103 q 1074 445 1166 309 l 1085 456 m 315 467 l 336 467 q 315 206 358 315 q 212 136 282 141 q 152 179 157 141 q 184 217 152 206 q 315 467 282 277 z "},"蒙":{"ha":1389,"x_min":65,"x_max":1340,"o":"m 1058 472 l 1150 369 q 1145 353 1156 353 q 1058 336 1096 363 q 901 271 993 304 q 1340 -5 1042 49 l 1340 -22 q 1210 -103 1232 -33 q 863 260 966 5 q 841 250 857 260 q 814 239 825 244 q 836 71 836 168 q 651 -163 846 -114 q 629 -152 635 -168 q 461 -33 629 -76 l 467 -11 l 629 -27 q 727 65 732 -43 q 722 136 727 92 q 722 184 722 168 q 76 -136 456 -27 l 65 -114 q 694 293 423 38 q 678 331 689 309 q 109 43 445 146 l 98 65 q 629 407 401 206 q 613 423 624 418 q 92 244 385 298 l 87 266 q 564 494 369 369 l 212 494 l 146 488 l 130 532 l 1096 532 l 1166 613 l 1286 510 l 1280 494 l 738 494 q 694 472 727 488 q 651 445 667 456 q 798 277 760 363 q 982 401 879 320 q 1058 472 1031 439 m 814 1134 l 944 1085 q 944 1069 955 1080 l 906 1042 l 906 998 l 906 982 l 1080 982 l 1150 1063 l 1270 960 l 1264 949 l 906 949 q 911 873 906 906 q 814 836 873 841 l 814 949 l 553 949 l 553 873 q 461 836 515 836 q 461 949 461 895 l 217 949 l 146 939 l 130 982 l 461 982 l 461 1031 l 461 1134 l 591 1085 q 591 1074 602 1085 l 553 1047 l 553 982 l 814 982 l 814 1134 m 239 711 q 141 608 222 618 q 81 646 81 613 q 103 678 81 673 q 206 873 195 749 l 222 873 q 233 846 228 863 q 239 814 239 825 l 1150 814 l 1215 879 l 1335 776 q 1324 760 1340 765 l 1264 749 l 1123 640 l 1107 656 l 1166 781 l 244 781 q 239 711 244 749 m 955 743 l 1063 651 l 1058 640 l 396 640 l 342 629 l 326 673 l 895 673 l 955 743 z "},"藏":{"ha":1389,"x_min":54,"x_max":1340,"o":"m 412 510 q 363 109 412 233 q 157 -157 320 -22 l 141 -141 q 326 369 315 49 l 239 369 q 71 -43 239 103 l 54 -27 q 157 369 163 141 l 136 369 l 81 363 l 65 401 l 326 401 q 326 521 326 456 l 326 553 l 233 553 l 190 510 l 114 564 q 114 575 109 575 l 146 608 l 146 841 l 255 787 q 255 776 266 781 l 222 743 l 222 586 l 326 586 l 326 825 l 429 770 l 911 770 q 906 917 911 879 l 1036 857 q 1036 846 1053 852 l 998 814 q 998 770 998 798 l 1166 770 l 1232 852 l 1340 749 l 1335 738 l 998 738 q 1009 467 998 548 q 1031 309 1015 380 q 1101 488 1069 391 q 1134 629 1128 553 l 1253 559 q 1253 548 1264 553 q 1194 483 1210 532 q 1069 201 1145 320 q 1210 0 1112 81 q 1237 5 1226 -16 l 1291 195 l 1313 190 l 1297 5 q 1340 -119 1291 -65 q 1291 -146 1324 -146 q 1085 -16 1188 -141 q 1004 114 1036 43 q 586 -168 863 -60 l 575 -146 q 841 49 754 -43 l 570 49 l 521 0 l 439 65 q 439 81 439 76 l 477 109 l 477 689 l 570 635 l 738 635 l 787 700 l 884 618 l 879 602 l 716 602 l 716 467 l 760 467 l 798 521 l 879 461 q 884 456 879 461 q 884 450 890 456 l 852 423 l 852 396 q 852 255 852 331 q 776 233 819 233 l 776 271 l 722 271 l 722 81 l 760 81 l 808 152 l 879 87 q 971 201 928 146 q 922 483 933 320 q 911 738 911 646 l 412 738 l 412 510 m 1199 1085 l 1318 982 l 1313 971 l 873 971 q 873 868 873 922 q 781 830 836 836 l 781 971 l 575 971 l 575 863 q 483 830 537 830 q 483 971 483 901 l 168 971 l 92 960 l 76 1004 l 483 1004 l 483 1025 l 483 1139 l 608 1090 q 608 1080 618 1090 l 575 1053 l 575 1004 l 781 1004 l 781 1139 l 906 1090 q 906 1074 917 1085 l 873 1047 l 873 1004 l 1128 1004 l 1199 1085 m 776 434 l 553 434 l 553 304 l 776 304 l 776 434 m 553 271 l 553 81 l 640 81 l 640 271 l 553 271 m 553 602 l 553 467 l 640 467 l 640 602 l 553 602 m 1031 949 q 1150 901 1112 933 q 1177 857 1183 884 q 1128 792 1166 803 q 1101 819 1112 792 q 1020 939 1074 890 l 1031 949 z "},"西":{"ha":1389,"x_min":65,"x_max":1335,"o":"m 1204 1090 l 1335 977 l 1324 966 l 879 966 l 879 738 l 1063 738 l 1118 814 l 1237 727 q 1237 716 1248 722 l 1183 667 l 1183 553 q 1188 212 1183 461 q 1188 -109 1188 -27 q 1080 -152 1145 -146 l 1080 -11 l 298 -11 l 298 -114 q 190 -152 250 -152 q 201 483 201 206 l 201 798 l 315 738 l 505 738 q 505 836 505 781 l 505 966 l 146 966 l 81 955 l 65 998 l 1128 998 l 1204 1090 m 890 255 q 781 363 776 255 l 781 705 l 602 705 q 298 136 608 309 l 298 22 l 1080 22 l 1080 271 q 955 255 1042 255 l 890 255 m 298 174 q 505 705 494 347 l 298 705 l 298 174 m 879 385 q 922 342 879 342 l 949 342 q 1031 369 998 342 q 1080 315 1063 347 l 1080 705 l 879 705 l 879 385 m 602 819 q 602 738 602 781 l 781 738 l 781 966 l 602 966 l 602 819 z "},"贵":{"ha":1389,"x_min":71,"x_max":1335,"o":"m 1210 705 l 1335 602 l 1324 591 l 141 591 l 87 581 l 71 624 l 646 624 l 646 749 l 374 749 l 374 716 q 277 684 336 684 q 277 917 277 798 l 277 1025 l 396 971 l 646 971 l 646 1139 l 781 1080 q 781 1069 792 1080 l 743 1042 l 743 971 l 993 971 l 1042 1036 l 1150 966 q 1161 960 1161 960 q 1150 949 1161 955 l 1112 911 l 1112 873 q 1112 711 1112 792 q 1015 678 1080 689 l 1015 749 l 743 749 l 743 624 l 1145 624 l 1210 705 m 320 434 l 320 537 l 439 477 l 955 477 l 1004 548 l 1123 467 q 1123 456 1134 461 l 1074 412 l 1074 369 q 1080 141 1074 222 q 971 103 1031 109 l 971 445 l 418 445 l 418 98 q 315 60 374 65 q 320 217 320 141 q 320 434 320 277 m 640 396 l 781 342 q 787 331 787 342 q 738 271 738 309 q 103 -157 722 -125 l 98 -136 q 624 239 602 -33 q 640 396 640 309 m 374 939 l 374 781 l 646 781 l 646 939 l 374 939 m 1015 939 l 743 939 l 743 781 l 1015 781 l 1015 939 m 749 119 q 1145 11 987 81 q 1210 -76 1210 -16 q 1161 -152 1199 -141 q 1118 -125 1150 -157 q 738 103 998 -11 l 749 119 z "},"辽":{"ha":1389,"x_min":49,"x_max":1340,"o":"m 293 689 l 407 608 q 407 597 418 608 l 363 553 l 363 119 q 873 11 472 5 q 1340 38 1112 11 l 1340 16 q 1237 -92 1237 -16 q 591 -65 694 -92 q 331 81 445 -33 q 304 81 320 98 q 157 -87 201 -22 q 146 -98 146 -98 q 136 -92 146 -103 l 65 11 q 260 114 157 43 l 260 586 l 109 586 l 65 575 l 49 618 l 239 618 l 293 689 m 1074 971 l 548 971 l 494 966 l 477 1004 l 1074 1004 l 1145 1063 l 1253 944 q 1248 933 1259 939 l 1183 922 l 939 770 l 971 760 q 971 743 982 749 l 939 711 l 939 201 q 792 92 939 130 q 770 98 770 81 q 602 222 760 184 l 608 244 l 770 222 q 830 277 836 212 l 830 819 l 901 787 l 1074 971 m 195 1074 q 385 949 320 1009 q 412 884 412 922 q 336 792 396 808 q 309 825 320 787 q 184 1063 266 966 l 195 1074 z "},"重":{"ha":1389,"x_min":49,"x_max":1335,"o":"m 1210 922 l 1335 819 l 1324 803 l 743 803 l 743 673 l 971 673 l 1015 743 l 1128 673 q 1128 656 1139 667 l 1085 618 l 1085 515 q 1085 401 1085 499 q 1090 266 1090 288 q 987 233 1058 233 l 987 277 l 743 277 l 743 136 l 1036 136 l 1107 222 l 1226 114 l 1221 103 l 743 103 l 743 -54 l 1128 -54 l 1199 38 l 1335 -76 l 1324 -92 l 146 -92 l 71 -98 l 54 -54 l 640 -54 l 640 103 l 293 103 l 217 92 l 201 136 l 640 136 l 640 277 l 396 277 l 396 244 q 293 206 369 217 q 298 505 298 320 l 298 732 l 418 673 l 640 673 l 640 803 l 141 803 l 71 798 l 49 836 l 640 836 l 640 966 q 212 944 494 955 q 179 944 401 949 l 179 971 q 282 982 212 977 q 933 1063 727 1031 q 1069 1096 1009 1074 l 1150 998 q 1139 987 1156 987 q 1009 993 1101 993 q 743 971 879 977 l 743 836 l 1139 836 l 1210 922 m 987 646 l 743 646 l 743 494 l 987 494 l 987 646 m 743 461 l 743 309 l 987 309 l 987 461 l 743 461 m 396 461 l 396 309 l 640 309 l 640 461 l 396 461 m 396 646 l 396 494 l 640 494 l 640 646 l 396 646 z "},"门":{"ha":1389,"x_min":174,"x_max":1259,"o":"m 1101 49 l 1101 955 l 667 955 l 597 944 l 581 987 l 1080 987 l 1139 1063 l 1259 982 q 1259 966 1259 977 l 1204 928 l 1204 -27 q 1058 -152 1210 -103 q 1036 -141 1042 -157 q 857 -16 1042 -60 l 863 5 l 1031 -11 q 1101 49 1107 -27 m 179 895 l 326 830 q 326 819 336 830 l 282 787 l 282 260 q 288 -114 282 5 q 174 -146 239 -141 q 179 255 179 -27 l 179 895 m 260 1134 q 461 998 374 1080 q 494 939 494 971 q 418 836 483 857 q 380 879 396 836 q 250 1118 347 1009 l 260 1134 z "},"陕":{"ha":1389,"x_min":125,"x_max":1362,"o":"m 1242 494 l 1362 380 l 1351 369 l 944 369 q 1362 -60 1053 43 l 1356 -76 q 1215 -141 1242 -71 q 901 369 977 -5 l 884 369 q 380 -157 830 22 l 369 -141 q 781 369 727 65 l 505 369 q 510 353 510 363 q 347 136 521 195 q 336 130 336 130 q 331 141 331 136 q 222 250 326 217 l 222 -119 q 125 -157 184 -152 q 125 -16 125 -114 q 130 271 130 146 l 130 1058 l 250 998 l 385 998 l 439 1063 l 548 977 q 548 960 559 971 l 494 933 q 380 700 461 857 q 347 635 358 656 q 505 401 483 510 l 787 401 q 819 787 819 532 l 819 825 l 581 825 l 510 819 l 494 857 l 819 857 l 819 1128 l 966 1063 q 966 1053 977 1063 l 917 1015 l 917 857 l 1096 857 l 1166 944 l 1286 841 l 1275 825 l 917 825 l 917 792 q 890 401 917 537 l 1172 401 l 1242 494 m 396 960 l 222 960 l 222 271 l 342 260 q 412 363 412 250 q 304 629 407 488 l 396 960 m 1085 765 l 1210 684 q 1215 673 1221 673 q 1204 667 1215 673 q 1145 624 1166 662 q 977 429 1069 521 l 955 439 q 1085 765 1042 586 m 570 743 q 716 597 662 673 q 738 543 738 575 q 662 450 727 472 q 629 488 640 456 q 553 732 608 635 l 570 743 z "},"青":{"ha":1389,"x_min":54,"x_max":1340,"o":"m 1063 -38 q 922 -157 1069 -114 q 901 -152 906 -168 q 754 -38 901 -76 l 760 -16 l 895 -27 q 955 33 960 -43 l 955 125 l 450 125 l 450 -119 q 336 -157 412 -152 q 347 212 347 33 l 347 553 l 467 494 l 939 494 l 987 564 l 1107 488 q 1107 472 1118 483 l 1063 434 l 1063 -38 m 646 1134 l 787 1069 q 787 1058 803 1063 l 743 1025 l 743 960 l 1080 960 l 1150 1036 l 1270 939 l 1264 928 l 743 928 l 743 803 l 1009 803 l 1074 879 l 1188 781 l 1183 770 l 743 770 l 743 640 l 1139 640 l 1210 727 l 1340 618 l 1335 608 l 146 608 l 71 602 l 54 640 l 646 640 l 646 770 l 320 770 l 244 760 l 222 803 l 646 803 l 646 928 l 239 928 l 157 917 l 141 960 l 646 960 l 646 1134 m 450 293 l 450 157 l 955 157 l 955 293 l 450 293 m 955 461 l 450 461 l 450 326 l 955 326 l 955 461 z "},"香":{"ha":1389,"x_min":43,"x_max":1340,"o":"m 1031 -125 q 922 -163 993 -163 l 922 -43 l 456 -43 l 456 -125 q 347 -163 407 -163 q 353 174 353 -5 l 353 467 l 477 401 l 901 401 l 955 477 l 1074 396 q 1074 385 1085 391 l 1031 342 l 1031 174 q 1031 -125 1031 16 m 1063 1090 l 1139 993 q 1145 982 1145 987 q 1134 977 1145 977 q 1009 982 1080 993 q 863 966 966 977 q 738 955 781 960 l 738 879 l 738 781 l 1101 781 l 1172 868 l 1297 760 l 1291 743 l 803 743 q 1340 488 1004 532 l 1335 467 q 1221 380 1248 456 q 765 743 901 483 l 738 743 q 743 472 743 651 q 640 434 705 439 q 640 716 640 602 q 54 320 429 477 l 43 342 q 537 743 353 526 l 184 743 l 114 738 l 98 781 l 646 781 l 646 879 l 646 949 q 212 933 418 933 l 206 955 q 944 1053 591 993 q 960 1058 949 1053 q 1063 1090 1042 1074 m 456 168 l 456 -11 l 922 -11 l 922 168 l 456 168 m 922 369 l 456 369 l 456 201 l 922 201 l 922 369 z "},"黑":{"ha":1389,"x_min":60,"x_max":1340,"o":"m 1210 320 l 1340 212 l 1335 201 l 152 201 l 76 190 l 60 233 l 640 233 l 640 396 l 255 396 l 179 385 l 163 429 l 640 429 l 640 597 l 336 597 l 336 532 q 233 505 298 505 q 244 825 244 689 l 244 1063 l 358 1009 l 1031 1009 l 1085 1074 l 1194 1004 q 1194 987 1204 998 l 1145 949 l 1145 787 q 1150 564 1145 678 q 1047 532 1107 537 l 1047 597 l 738 597 l 738 429 l 1047 429 l 1118 510 l 1237 407 l 1232 396 l 738 396 l 738 233 l 1139 233 l 1210 320 m 1047 977 l 738 977 l 738 629 l 1047 629 l 1047 977 m 336 977 l 336 629 l 640 629 l 640 977 l 336 977 m 1036 163 q 1232 33 1172 87 q 1280 -49 1280 -11 q 1204 -146 1270 -130 q 1177 -109 1188 -146 q 1025 146 1128 38 l 1036 163 m 282 152 l 298 152 q 304 65 304 103 q 250 -114 304 -43 q 174 -152 222 -157 q 109 -98 119 -146 q 136 -54 109 -71 q 282 152 233 -11 m 765 152 q 890 43 836 103 q 933 -38 933 -11 q 857 -130 917 -114 q 825 -87 836 -136 q 749 141 808 22 l 765 152 m 477 152 q 586 33 548 87 q 613 -38 613 -5 q 526 -130 602 -114 q 499 -92 499 -130 q 467 141 499 22 l 477 152 m 401 922 q 548 814 494 868 q 570 765 570 792 q 499 673 559 689 q 472 716 483 673 q 391 906 450 825 l 401 922 m 901 933 l 1015 852 q 1009 836 1020 841 q 939 798 971 830 q 803 656 857 705 l 787 667 q 901 933 868 825 z "},"龙":{"ha":1389,"x_min":54,"x_max":1340,"o":"m 1107 656 l 1215 553 q 1210 543 1226 543 q 1134 505 1161 537 q 852 222 982 326 l 852 54 q 917 0 846 -5 l 1107 0 q 1221 81 1210 -5 l 1259 298 l 1280 293 l 1286 92 q 1340 11 1286 27 q 1128 -103 1302 -109 l 890 -103 q 749 43 743 -109 l 749 146 q 423 -22 602 49 l 412 0 q 749 239 602 109 l 749 749 l 613 749 q 65 -157 629 92 l 54 -136 q 510 749 521 174 l 179 749 l 103 738 l 87 781 l 510 781 q 515 1134 515 879 l 667 1069 q 667 1058 678 1069 l 618 1020 q 618 781 618 911 l 1096 781 l 1177 879 l 1313 760 l 1302 749 l 852 749 l 852 336 q 1031 543 949 434 q 1107 656 1080 597 m 987 836 q 955 863 971 836 q 770 1063 890 977 l 776 1080 q 1009 987 917 1042 q 1053 922 1053 966 q 987 836 1042 857 z "}}}
